<svg width="257" height="198" viewBox="0 0 257 198" fill="none" xmlns="http://www.w3.org/2000/svg">
<path d="M28.0627 177.12C25.6927 177.868 24.3778 180.395 25.1258 182.765C25.8739 185.135 28.4016 186.45 30.7716 185.702L29.4172 181.411L28.0627 177.12ZM243 114L192.267 102.768L207.906 152.32L243 114ZM29.4172 181.411L30.7716 185.702L205.732 130.481L204.378 126.19L203.024 121.899L28.0627 177.12L29.4172 181.411Z" fill="#00A5CF"/>
<path d="M25.2664 179.673C24.3065 181.965 25.3867 184.602 27.6791 185.562C29.9715 186.522 32.608 185.441 33.568 183.149L29.4172 181.411L25.2664 179.673ZM79 63L37.6546 94.4731L85.5838 114.543L79 63ZM29.4172 181.411L33.568 183.149L67.508 102.095L63.3572 100.357L59.2064 98.619L25.2664 179.673L29.4172 181.411Z" fill="#25A18E"/>
<path d="M26.5097 177.976C24.6128 179.582 24.3768 182.421 25.9825 184.318C27.5883 186.215 30.4277 186.451 32.3246 184.845L29.4172 181.411L26.5097 177.976ZM226 15L174.868 24.2449L208.44 63.9045L226 15ZM29.4172 181.411L32.3246 184.845L197.996 44.6018L195.088 41.1672L192.181 37.7326L26.5097 177.976L29.4172 181.411Z" fill="#A125A1"/>
</svg>
