<svg xmlns="http://www.w3.org/2000/svg" width="700" height="650" viewBox="0 0 700 650">
    <defs>
        <style>
            .table-text { font-family: -apple-system, BlinkMacSystemFont, 'Segoe UI', sans-serif; font-size: 16px; fill: #f1f5f9; }
            .title-text { font-family: -apple-system, BlinkMacSystemFont, 'Segoe UI', sans-serif; font-size: 20px; font-weight: 700; fill: #f1f5f9; }
            
            /* Light mode - dark text for headings */
            @media (prefers-color-scheme: light) {
                .title-text { fill: #0f172a; }
            }
            
            /* Dark mode - light text for headings (default) */
            @media (prefers-color-scheme: dark) {
                .title-text { fill: #f1f5f9; }
            }
        </style>
    </defs>
    
    <!-- ============ LIST 1: ORDERED BY A ============ -->
    <g id="list-ordered-by-a">
        <!-- Title -->
        <text x="87.5" y="30" class="title-text" text-anchor="middle">Blue</text>
        
        <!-- List background -->
        <rect x="25" y="50" width="125" height="550" fill="#1e293b" rx="8"/>
        
        <!-- Combinations with A=1 -->
        <circle cx="60" cy="81" r="5" fill="#0173B2" stroke="#1e293b" stroke-width="1"/>
        
        <circle cx="58" cy="113" r="5" fill="#0173B2" stroke="#1e293b" stroke-width="1"/>
        <circle cx="66" cy="113" r="5" fill="#DE8F05" stroke="#1e293b" stroke-width="1"/>
        
        <circle cx="58" cy="145" r="5" fill="#0173B2" stroke="#1e293b" stroke-width="1"/>
        <circle cx="66" cy="145" r="5" fill="#029E73" stroke="#1e293b" stroke-width="1"/>
        
        <circle cx="58" cy="177" r="5" fill="#0173B2" stroke="#1e293b" stroke-width="1"/>
        <circle cx="66" cy="177" r="5" fill="#CC78BC" stroke="#1e293b" stroke-width="1"/>
        
        <circle cx="56" cy="209" r="5" fill="#0173B2" stroke="#1e293b" stroke-width="1"/>
        <circle cx="64" cy="209" r="5" fill="#DE8F05" stroke="#1e293b" stroke-width="1"/>
        <circle cx="72" cy="209" r="5" fill="#029E73" stroke="#1e293b" stroke-width="1"/>
        
        <circle cx="56" cy="241" r="5" fill="#0173B2" stroke="#1e293b" stroke-width="1"/>
        <circle cx="64" cy="241" r="5" fill="#DE8F05" stroke="#1e293b" stroke-width="1"/>
        <circle cx="72" cy="241" r="5" fill="#CC78BC" stroke="#1e293b" stroke-width="1"/>
        
        <circle cx="56" cy="273" r="5" fill="#0173B2" stroke="#1e293b" stroke-width="1"/>
        <circle cx="64" cy="273" r="5" fill="#029E73" stroke="#1e293b" stroke-width="1"/>
        <circle cx="72" cy="273" r="5" fill="#CC78BC" stroke="#1e293b" stroke-width="1"/>
        
        <circle cx="54" cy="305" r="5" fill="#0173B2" stroke="#1e293b" stroke-width="1"/>
        <circle cx="62" cy="305" r="5" fill="#DE8F05" stroke="#1e293b" stroke-width="1"/>
        <circle cx="70" cy="305" r="5" fill="#029E73" stroke="#1e293b" stroke-width="1"/>
        <circle cx="78" cy="305" r="5" fill="#CC78BC" stroke="#1e293b" stroke-width="1"/>
        
        <!-- Separator -->
        <line x1="40" y1="330" x2="135" y2="330" stroke="#475569" stroke-width="2"/>
        
        <!-- Combinations with A=0 -->
        <circle cx="60" cy="361" r="5" fill="#DE8F05" stroke="#1e293b" stroke-width="1"/>
        
        <circle cx="60" cy="393" r="5" fill="#029E73" stroke="#1e293b" stroke-width="1"/>
        
        <circle cx="60" cy="425" r="5" fill="#CC78BC" stroke="#1e293b" stroke-width="1"/>
        
        <circle cx="58" cy="457" r="5" fill="#DE8F05" stroke="#1e293b" stroke-width="1"/>
        <circle cx="66" cy="457" r="5" fill="#029E73" stroke="#1e293b" stroke-width="1"/>
        
        <circle cx="58" cy="489" r="5" fill="#DE8F05" stroke="#1e293b" stroke-width="1"/>
        <circle cx="66" cy="489" r="5" fill="#CC78BC" stroke="#1e293b" stroke-width="1"/>
        
        <circle cx="58" cy="521" r="5" fill="#029E73" stroke="#1e293b" stroke-width="1"/>
        <circle cx="66" cy="521" r="5" fill="#CC78BC" stroke="#1e293b" stroke-width="1"/>
        
        <circle cx="56" cy="553" r="5" fill="#DE8F05" stroke="#1e293b" stroke-width="1"/>
        <circle cx="64" cy="553" r="5" fill="#029E73" stroke="#1e293b" stroke-width="1"/>
        <circle cx="72" cy="553" r="5" fill="#CC78BC" stroke="#1e293b" stroke-width="1"/>
    </g>
    
    <!-- ============ LIST 2: ORDERED BY B ============ -->
    <g id="list-ordered-by-b">
        <!-- Title -->
        <text x="262.5" y="30" class="title-text" text-anchor="middle">Orange</text>
        
        <!-- List background -->
        <rect x="200" y="50" width="125" height="550" fill="#1e293b" rx="8"/>
        
        <!-- Combinations with B=1 -->
        <circle cx="232" cy="81" r="5" fill="#DE8F05" stroke="#1e293b" stroke-width="1"/>
        
        <circle cx="230" cy="113" r="5" fill="#0173B2" stroke="#1e293b" stroke-width="1"/>
        <circle cx="238" cy="113" r="5" fill="#DE8F05" stroke="#1e293b" stroke-width="1"/>
        
        <circle cx="230" cy="145" r="5" fill="#DE8F05" stroke="#1e293b" stroke-width="1"/>
        <circle cx="238" cy="145" r="5" fill="#029E73" stroke="#1e293b" stroke-width="1"/>
        
        <circle cx="230" cy="177" r="5" fill="#DE8F05" stroke="#1e293b" stroke-width="1"/>
        <circle cx="238" cy="177" r="5" fill="#CC78BC" stroke="#1e293b" stroke-width="1"/>
        
        <circle cx="228" cy="209" r="5" fill="#0173B2" stroke="#1e293b" stroke-width="1"/>
        <circle cx="236" cy="209" r="5" fill="#DE8F05" stroke="#1e293b" stroke-width="1"/>
        <circle cx="244" cy="209" r="5" fill="#029E73" stroke="#1e293b" stroke-width="1"/>
        
        <circle cx="228" cy="241" r="5" fill="#0173B2" stroke="#1e293b" stroke-width="1"/>
        <circle cx="236" cy="241" r="5" fill="#DE8F05" stroke="#1e293b" stroke-width="1"/>
        <circle cx="244" cy="241" r="5" fill="#CC78BC" stroke="#1e293b" stroke-width="1"/>
        
        <circle cx="228" cy="273" r="5" fill="#DE8F05" stroke="#1e293b" stroke-width="1"/>
        <circle cx="236" cy="273" r="5" fill="#029E73" stroke="#1e293b" stroke-width="1"/>
        <circle cx="244" cy="273" r="5" fill="#CC78BC" stroke="#1e293b" stroke-width="1"/>
        
        <circle cx="226" cy="305" r="5" fill="#0173B2" stroke="#1e293b" stroke-width="1"/>
        <circle cx="234" cy="305" r="5" fill="#DE8F05" stroke="#1e293b" stroke-width="1"/>
        <circle cx="242" cy="305" r="5" fill="#029E73" stroke="#1e293b" stroke-width="1"/>
        <circle cx="250" cy="305" r="5" fill="#CC78BC" stroke="#1e293b" stroke-width="1"/>
        
        <!-- Separator -->
        <line x1="215" y1="330" x2="310" y2="330" stroke="#475569" stroke-width="2"/>
        
        <!-- Combinations with B=0 -->
        <circle cx="232" cy="361" r="5" fill="#0173B2" stroke="#1e293b" stroke-width="1"/>
        
        <circle cx="232" cy="393" r="5" fill="#029E73" stroke="#1e293b" stroke-width="1"/>
        
        <circle cx="232" cy="425" r="5" fill="#CC78BC" stroke="#1e293b" stroke-width="1"/>
        
        <circle cx="230" cy="457" r="5" fill="#0173B2" stroke="#1e293b" stroke-width="1"/>
        <circle cx="238" cy="457" r="5" fill="#029E73" stroke="#1e293b" stroke-width="1"/>
        
        <circle cx="230" cy="489" r="5" fill="#0173B2" stroke="#1e293b" stroke-width="1"/>
        <circle cx="238" cy="489" r="5" fill="#CC78BC" stroke="#1e293b" stroke-width="1"/>
        
        <circle cx="230" cy="521" r="5" fill="#029E73" stroke="#1e293b" stroke-width="1"/>
        <circle cx="238" cy="521" r="5" fill="#CC78BC" stroke="#1e293b" stroke-width="1"/>
        
        <circle cx="228" cy="553" r="5" fill="#0173B2" stroke="#1e293b" stroke-width="1"/>
        <circle cx="236" cy="553" r="5" fill="#029E73" stroke="#1e293b" stroke-width="1"/>
        <circle cx="244" cy="553" r="5" fill="#CC78BC" stroke="#1e293b" stroke-width="1"/>
    </g>
    
    <!-- ============ LIST 3: ORDERED BY C ============ -->
    <g id="list-ordered-by-c">
        <!-- Title -->
        <text x="437.5" y="30" class="title-text" text-anchor="middle">Green</text>
        
        <!-- List background -->
        <rect x="375" y="50" width="125" height="550" fill="#1e293b" rx="8"/>
        
        <!-- Combinations with C=1 -->
        <circle cx="407" cy="81" r="5" fill="#029E73" stroke="#1e293b" stroke-width="1"/>
        
        <circle cx="405" cy="113" r="5" fill="#0173B2" stroke="#1e293b" stroke-width="1"/>
        <circle cx="413" cy="113" r="5" fill="#029E73" stroke="#1e293b" stroke-width="1"/>
        
        <circle cx="405" cy="145" r="5" fill="#DE8F05" stroke="#1e293b" stroke-width="1"/>
        <circle cx="413" cy="145" r="5" fill="#029E73" stroke="#1e293b" stroke-width="1"/>
        
        <circle cx="405" cy="177" r="5" fill="#029E73" stroke="#1e293b" stroke-width="1"/>
        <circle cx="413" cy="177" r="5" fill="#CC78BC" stroke="#1e293b" stroke-width="1"/>
        
        <circle cx="403" cy="209" r="5" fill="#0173B2" stroke="#1e293b" stroke-width="1"/>
        <circle cx="411" cy="209" r="5" fill="#DE8F05" stroke="#1e293b" stroke-width="1"/>
        <circle cx="419" cy="209" r="5" fill="#029E73" stroke="#1e293b" stroke-width="1"/>
        
        <circle cx="403" cy="241" r="5" fill="#0173B2" stroke="#1e293b" stroke-width="1"/>
        <circle cx="411" cy="241" r="5" fill="#029E73" stroke="#1e293b" stroke-width="1"/>
        <circle cx="419" cy="241" r="5" fill="#CC78BC" stroke="#1e293b" stroke-width="1"/>
        
        <circle cx="403" cy="273" r="5" fill="#DE8F05" stroke="#1e293b" stroke-width="1"/>
        <circle cx="411" cy="273" r="5" fill="#029E73" stroke="#1e293b" stroke-width="1"/>
        <circle cx="419" cy="273" r="5" fill="#CC78BC" stroke="#1e293b" stroke-width="1"/>
        
        <circle cx="401" cy="305" r="5" fill="#0173B2" stroke="#1e293b" stroke-width="1"/>
        <circle cx="409" cy="305" r="5" fill="#DE8F05" stroke="#1e293b" stroke-width="1"/>
        <circle cx="417" cy="305" r="5" fill="#029E73" stroke="#1e293b" stroke-width="1"/>
        <circle cx="425" cy="305" r="5" fill="#CC78BC" stroke="#1e293b" stroke-width="1"/>
        
        <!-- Separator -->
        <line x1="390" y1="330" x2="485" y2="330" stroke="#475569" stroke-width="2"/>
        
        <!-- Combinations with C=0 -->
        <circle cx="407" cy="361" r="5" fill="#0173B2" stroke="#1e293b" stroke-width="1"/>
        
        <circle cx="407" cy="393" r="5" fill="#DE8F05" stroke="#1e293b" stroke-width="1"/>
        
        <circle cx="407" cy="425" r="5" fill="#CC78BC" stroke="#1e293b" stroke-width="1"/>
        
        <circle cx="405" cy="457" r="5" fill="#0173B2" stroke="#1e293b" stroke-width="1"/>
        <circle cx="413" cy="457" r="5" fill="#DE8F05" stroke="#1e293b" stroke-width="1"/>
        
        <circle cx="405" cy="489" r="5" fill="#0173B2" stroke="#1e293b" stroke-width="1"/>
        <circle cx="413" cy="489" r="5" fill="#CC78BC" stroke="#1e293b" stroke-width="1"/>
        
        <circle cx="405" cy="521" r="5" fill="#DE8F05" stroke="#1e293b" stroke-width="1"/>
        <circle cx="413" cy="521" r="5" fill="#CC78BC" stroke="#1e293b" stroke-width="1"/>
        
        <circle cx="403" cy="553" r="5" fill="#0173B2" stroke="#1e293b" stroke-width="1"/>
        <circle cx="411" cy="553" r="5" fill="#DE8F05" stroke="#1e293b" stroke-width="1"/>
        <circle cx="419" cy="553" r="5" fill="#CC78BC" stroke="#1e293b" stroke-width="1"/>
    </g>
    
    <!-- ============ LIST 4: ORDERED BY D ============ -->
    <g id="list-ordered-by-d">
        <!-- Title -->
        <text x="612.5" y="30" class="title-text" text-anchor="middle">Pink</text>
        
        <!-- List background -->
        <rect x="550" y="50" width="125" height="550" fill="#1e293b" rx="8"/>
        
        <!-- Combinations with D=1 -->
        <circle cx="582" cy="81" r="5" fill="#CC78BC" stroke="#1e293b" stroke-width="1"/>
        
        <circle cx="580" cy="113" r="5" fill="#0173B2" stroke="#1e293b" stroke-width="1"/>
        <circle cx="588" cy="113" r="5" fill="#CC78BC" stroke="#1e293b" stroke-width="1"/>
        
        <circle cx="580" cy="145" r="5" fill="#DE8F05" stroke="#1e293b" stroke-width="1"/>
        <circle cx="588" cy="145" r="5" fill="#CC78BC" stroke="#1e293b" stroke-width="1"/>
        
        <circle cx="580" cy="177" r="5" fill="#029E73" stroke="#1e293b" stroke-width="1"/>
        <circle cx="588" cy="177" r="5" fill="#CC78BC" stroke="#1e293b" stroke-width="1"/>
        
        <circle cx="578" cy="209" r="5" fill="#0173B2" stroke="#1e293b" stroke-width="1"/>
        <circle cx="586" cy="209" r="5" fill="#DE8F05" stroke="#1e293b" stroke-width="1"/>
        <circle cx="594" cy="209" r="5" fill="#CC78BC" stroke="#1e293b" stroke-width="1"/>
        
        <circle cx="578" cy="241" r="5" fill="#0173B2" stroke="#1e293b" stroke-width="1"/>
        <circle cx="586" cy="241" r="5" fill="#029E73" stroke="#1e293b" stroke-width="1"/>
        <circle cx="594" cy="241" r="5" fill="#CC78BC" stroke="#1e293b" stroke-width="1"/>
        
        <circle cx="578" cy="273" r="5" fill="#DE8F05" stroke="#1e293b" stroke-width="1"/>
        <circle cx="586" cy="273" r="5" fill="#029E73" stroke="#1e293b" stroke-width="1"/>
        <circle cx="594" cy="273" r="5" fill="#CC78BC" stroke="#1e293b" stroke-width="1"/>
        
        <circle cx="576" cy="305" r="5" fill="#0173B2" stroke="#1e293b" stroke-width="1"/>
        <circle cx="584" cy="305" r="5" fill="#DE8F05" stroke="#1e293b" stroke-width="1"/>
        <circle cx="592" cy="305" r="5" fill="#029E73" stroke="#1e293b" stroke-width="1"/>
        <circle cx="600" cy="305" r="5" fill="#CC78BC" stroke="#1e293b" stroke-width="1"/>
        
        <!-- Separator -->
        <line x1="565" y1="330" x2="660" y2="330" stroke="#475569" stroke-width="2"/>
        
        <!-- Combinations with D=0 -->
        <circle cx="582" cy="361" r="5" fill="#0173B2" stroke="#1e293b" stroke-width="1"/>
        
        <circle cx="582" cy="393" r="5" fill="#DE8F05" stroke="#1e293b" stroke-width="1"/>
        
        <circle cx="582" cy="425" r="5" fill="#029E73" stroke="#1e293b" stroke-width="1"/>
        
        <circle cx="580" cy="457" r="5" fill="#0173B2" stroke="#1e293b" stroke-width="1"/>
        <circle cx="588" cy="457" r="5" fill="#DE8F05" stroke="#1e293b" stroke-width="1"/>
        
        <circle cx="580" cy="489" r="5" fill="#0173B2" stroke="#1e293b" stroke-width="1"/>
        <circle cx="588" cy="489" r="5" fill="#029E73" stroke="#1e293b" stroke-width="1"/>
        
        <circle cx="580" cy="521" r="5" fill="#DE8F05" stroke="#1e293b" stroke-width="1"/>
        <circle cx="588" cy="521" r="5" fill="#029E73" stroke="#1e293b" stroke-width="1"/>
        
        <circle cx="578" cy="553" r="5" fill="#0173B2" stroke="#1e293b" stroke-width="1"/>
        <circle cx="586" cy="553" r="5" fill="#DE8F05" stroke="#1e293b" stroke-width="1"/>
        <circle cx="594" cy="553" r="5" fill="#029E73" stroke="#1e293b" stroke-width="1"/>
    </g>
</svg>
