<svg xmlns="http://www.w3.org/2000/svg" width="700" height="550" viewBox="0 0 700 550">
    <defs>
        <style>
            .table-text { font-family: -apple-system, BlinkMacSystemFont, 'Segoe UI', sans-serif; font-size: 16px; fill: #f1f5f9; }
            .header-text { font-family: -apple-system, BlinkMacSystemFont, 'Segoe UI', sans-serif; font-size: 18px; font-weight: 600; fill: #f1f5f9; }
            .layer-text { font-family: -apple-system, BlinkMacSystemFont, 'Segoe UI', sans-serif; font-size: 11px; fill: #94a3b8; text-transform: uppercase; }
            .value-text { font-size: 18px; fill: #f1f5f9; font-weight: bold; font-family: monospace; }
        </style>
    </defs>
    
    <!-- Table background -->
    <rect x="0" y="0" width="700" height="550" fill="#1e293b" rx="8"/>
    
    <!-- Header background -->
    <rect x="0" y="0" width="700" height="40" fill="#334155" rx="8"/>
    <line x1="0" y1="40" x2="700" y2="40" stroke="#475569" stroke-width="2"/>
    
    <!-- Column headers -->
    <text x="25" y="27" class="header-text">Combination</text>
    
    <!-- A column header -->
    <circle cx="400" cy="13" r="10" fill="#0173B2" stroke="#1e293b" stroke-width="2"/>
    <text x="400" y="36" class="header-text" text-anchor="middle">A</text>
    
    <!-- B column header -->
    <circle cx="480" cy="13" r="10" fill="#DE8F05" stroke="#1e293b" stroke-width="2"/>
    <text x="480" y="36" class="header-text" text-anchor="middle">B</text>
    
    <!-- C column header -->
    <circle cx="560" cy="13" r="10" fill="#029E73" stroke="#1e293b" stroke-width="2"/>
    <text x="560" y="36" class="header-text" text-anchor="middle">C</text>
    
    <!-- D column header -->
    <circle cx="640" cy="13" r="10" fill="#CC78BC" stroke="#1e293b" stroke-width="2"/>
    <text x="640" y="36" class="header-text" text-anchor="middle">D</text>
    
    <!-- Row separators and content -->
    <!-- Layer 1 rows -->
    
    <!-- Row 1: A -->
    <line x1="0" y1="72" x2="700" y2="72" stroke="#334155" stroke-width="1"/>
    <circle cx="35" cy="61" r="5" fill="#0173B2" stroke="#1e293b" stroke-width="1"/>
    <text x="45" y="65" class="table-text">A</text>
    <text x="75" y="65" class="layer-text">Layer 1</text>
    <text x="400" y="65" class="value-text" text-anchor="middle">1</text>
    <text x="480" y="65" class="value-text" text-anchor="middle">0</text>
    <text x="560" y="65" class="value-text" text-anchor="middle">0</text>
    <text x="640" y="65" class="value-text" text-anchor="middle">0</text>
    
    <!-- Row 2: B -->
    <line x1="0" y1="104" x2="700" y2="104" stroke="#334155" stroke-width="1"/>
    <circle cx="35" cy="93" r="5" fill="#DE8F05" stroke="#1e293b" stroke-width="1"/>
    <text x="45" y="97" class="table-text">B</text>
    <text x="75" y="97" class="layer-text">Layer 1</text>
    <text x="400" y="97" class="value-text" text-anchor="middle">0</text>
    <text x="480" y="97" class="value-text" text-anchor="middle">1</text>
    <text x="560" y="97" class="value-text" text-anchor="middle">0</text>
    <text x="640" y="97" class="value-text" text-anchor="middle">0</text>
    
    <!-- Row 3: C -->
    <line x1="0" y1="136" x2="700" y2="136" stroke="#334155" stroke-width="1"/>
    <circle cx="35" cy="125" r="5" fill="#029E73" stroke="#1e293b" stroke-width="1"/>
    <text x="45" y="129" class="table-text">C</text>
    <text x="75" y="129" class="layer-text">Layer 1</text>
    <text x="400" y="129" class="value-text" text-anchor="middle">0</text>
    <text x="480" y="129" class="value-text" text-anchor="middle">0</text>
    <text x="560" y="129" class="value-text" text-anchor="middle">1</text>
    <text x="640" y="129" class="value-text" text-anchor="middle">0</text>
    
    <!-- Row 4: D -->
    <line x1="0" y1="168" x2="700" y2="168" stroke="#334155" stroke-width="1"/>
    <circle cx="35" cy="157" r="5" fill="#CC78BC" stroke="#1e293b" stroke-width="1"/>
    <text x="45" y="161" class="table-text">D</text>
    <text x="75" y="161" class="layer-text">Layer 1</text>
    <text x="400" y="161" class="value-text" text-anchor="middle">0</text>
    <text x="480" y="161" class="value-text" text-anchor="middle">0</text>
    <text x="560" y="161" class="value-text" text-anchor="middle">0</text>
    <text x="640" y="161" class="value-text" text-anchor="middle">1</text>
    
    <!-- Layer 2 rows -->
    
    <!-- Row 5: A∪B -->
    <line x1="0" y1="200" x2="700" y2="200" stroke="#334155" stroke-width="1"/>
    <circle cx="33" cy="189" r="5" fill="#0173B2" stroke="#1e293b" stroke-width="1"/>
    <circle cx="41" cy="189" r="5" fill="#DE8F05" stroke="#1e293b" stroke-width="1"/>
    <text x="50" y="193" class="table-text">A∪B</text>
    <text x="85" y="193" class="layer-text">Layer 2</text>
    <text x="400" y="193" class="value-text" text-anchor="middle">1</text>
    <text x="480" y="193" class="value-text" text-anchor="middle">1</text>
    <text x="560" y="193" class="value-text" text-anchor="middle">0</text>
    <text x="640" y="193" class="value-text" text-anchor="middle">0</text>
    
    <!-- Row 6: B∪C -->
    <line x1="0" y1="232" x2="700" y2="232" stroke="#334155" stroke-width="1"/>
    <circle cx="33" cy="221" r="5" fill="#DE8F05" stroke="#1e293b" stroke-width="1"/>
    <circle cx="41" cy="221" r="5" fill="#029E73" stroke="#1e293b" stroke-width="1"/>
    <text x="50" y="225" class="table-text">B∪C</text>
    <text x="85" y="225" class="layer-text">Layer 2</text>
    <text x="400" y="225" class="value-text" text-anchor="middle">0</text>
    <text x="480" y="225" class="value-text" text-anchor="middle">1</text>
    <text x="560" y="225" class="value-text" text-anchor="middle">1</text>
    <text x="640" y="225" class="value-text" text-anchor="middle">0</text>
    
    <!-- Row 7: C∪D -->
    <line x1="0" y1="264" x2="700" y2="264" stroke="#334155" stroke-width="1"/>
    <circle cx="33" cy="253" r="5" fill="#029E73" stroke="#1e293b" stroke-width="1"/>
    <circle cx="41" cy="253" r="5" fill="#CC78BC" stroke="#1e293b" stroke-width="1"/>
    <text x="50" y="257" class="table-text">C∪D</text>
    <text x="85" y="257" class="layer-text">Layer 2</text>
    <text x="400" y="257" class="value-text" text-anchor="middle">0</text>
    <text x="480" y="257" class="value-text" text-anchor="middle">0</text>
    <text x="560" y="257" class="value-text" text-anchor="middle">1</text>
    <text x="640" y="257" class="value-text" text-anchor="middle">1</text>
    
    <!-- Row 8: A∪D -->
    <line x1="0" y1="296" x2="700" y2="296" stroke="#334155" stroke-width="1"/>
    <circle cx="33" cy="285" r="5" fill="#0173B2" stroke="#1e293b" stroke-width="1"/>
    <circle cx="41" cy="285" r="5" fill="#CC78BC" stroke="#1e293b" stroke-width="1"/>
    <text x="50" y="289" class="table-text">A∪D</text>
    <text x="85" y="289" class="layer-text">Layer 2</text>
    <text x="400" y="289" class="value-text" text-anchor="middle">1</text>
    <text x="480" y="289" class="value-text" text-anchor="middle">0</text>
    <text x="560" y="289" class="value-text" text-anchor="middle">0</text>
    <text x="640" y="289" class="value-text" text-anchor="middle">1</text>
    
    <!-- Row 9: A∪C -->
    <line x1="0" y1="328" x2="700" y2="328" stroke="#334155" stroke-width="1"/>
    <circle cx="33" cy="317" r="5" fill="#0173B2" stroke="#1e293b" stroke-width="1"/>
    <circle cx="41" cy="317" r="5" fill="#029E73" stroke="#1e293b" stroke-width="1"/>
    <text x="50" y="321" class="table-text">A∪C</text>
    <text x="85" y="321" class="layer-text">Layer 2</text>
    <text x="400" y="321" class="value-text" text-anchor="middle">1</text>
    <text x="480" y="321" class="value-text" text-anchor="middle">0</text>
    <text x="560" y="321" class="value-text" text-anchor="middle">1</text>
    <text x="640" y="321" class="value-text" text-anchor="middle">0</text>
    
    <!-- Row 10: B∪D -->
    <line x1="0" y1="360" x2="700" y2="360" stroke="#334155" stroke-width="1"/>
    <circle cx="33" cy="349" r="5" fill="#DE8F05" stroke="#1e293b" stroke-width="1"/>
    <circle cx="41" cy="349" r="5" fill="#CC78BC" stroke="#1e293b" stroke-width="1"/>
    <text x="50" y="353" class="table-text">B∪D</text>
    <text x="85" y="353" class="layer-text">Layer 2</text>
    <text x="400" y="353" class="value-text" text-anchor="middle">0</text>
    <text x="480" y="353" class="value-text" text-anchor="middle">1</text>
    <text x="560" y="353" class="value-text" text-anchor="middle">0</text>
    <text x="640" y="353" class="value-text" text-anchor="middle">1</text>
    
    <!-- Layer 3 rows -->
    
    <!-- Row 11: A∪B∪C -->
    <line x1="0" y1="392" x2="700" y2="392" stroke="#334155" stroke-width="1"/>
    <circle cx="31" cy="381" r="5" fill="#0173B2" stroke="#1e293b" stroke-width="1"/>
    <circle cx="39" cy="381" r="5" fill="#DE8F05" stroke="#1e293b" stroke-width="1"/>
    <circle cx="47" cy="381" r="5" fill="#029E73" stroke="#1e293b" stroke-width="1"/>
    <text x="56" y="385" class="table-text">A∪B∪C</text>
    <text x="105" y="385" class="layer-text">Layer 3</text>
    <text x="400" y="385" class="value-text" text-anchor="middle">1</text>
    <text x="480" y="385" class="value-text" text-anchor="middle">1</text>
    <text x="560" y="385" class="value-text" text-anchor="middle">1</text>
    <text x="640" y="385" class="value-text" text-anchor="middle">0</text>
    
    <!-- Row 12: A∪B∪D -->
    <line x1="0" y1="424" x2="700" y2="424" stroke="#334155" stroke-width="1"/>
    <circle cx="31" cy="413" r="5" fill="#0173B2" stroke="#1e293b" stroke-width="1"/>
    <circle cx="39" cy="413" r="5" fill="#DE8F05" stroke="#1e293b" stroke-width="1"/>
    <circle cx="47" cy="413" r="5" fill="#CC78BC" stroke="#1e293b" stroke-width="1"/>
    <text x="56" y="417" class="table-text">A∪B∪D</text>
    <text x="105" y="417" class="layer-text">Layer 3</text>
    <text x="400" y="417" class="value-text" text-anchor="middle">1</text>
    <text x="480" y="417" class="value-text" text-anchor="middle">1</text>
    <text x="560" y="417" class="value-text" text-anchor="middle">0</text>
    <text x="640" y="417" class="value-text" text-anchor="middle">1</text>
    
    <!-- Row 13: B∪C∪D -->
    <line x1="0" y1="456" x2="700" y2="456" stroke="#334155" stroke-width="1"/>
    <circle cx="31" cy="445" r="5" fill="#DE8F05" stroke="#1e293b" stroke-width="1"/>
    <circle cx="39" cy="445" r="5" fill="#029E73" stroke="#1e293b" stroke-width="1"/>
    <circle cx="47" cy="445" r="5" fill="#CC78BC" stroke="#1e293b" stroke-width="1"/>
    <text x="56" y="449" class="table-text">B∪C∪D</text>
    <text x="105" y="449" class="layer-text">Layer 3</text>
    <text x="400" y="449" class="value-text" text-anchor="middle">0</text>
    <text x="480" y="449" class="value-text" text-anchor="middle">1</text>
    <text x="560" y="449" class="value-text" text-anchor="middle">1</text>
    <text x="640" y="449" class="value-text" text-anchor="middle">1</text>
    
    <!-- Row 14: A∪C∪D -->
    <line x1="0" y1="488" x2="700" y2="488" stroke="#334155" stroke-width="1"/>
    <circle cx="31" cy="477" r="5" fill="#0173B2" stroke="#1e293b" stroke-width="1"/>
    <circle cx="39" cy="477" r="5" fill="#029E73" stroke="#1e293b" stroke-width="1"/>
    <circle cx="47" cy="477" r="5" fill="#CC78BC" stroke="#1e293b" stroke-width="1"/>
    <text x="56" y="481" class="table-text">A∪C∪D</text>
    <text x="105" y="481" class="layer-text">Layer 3</text>
    <text x="400" y="481" class="value-text" text-anchor="middle">1</text>
    <text x="480" y="481" class="value-text" text-anchor="middle">0</text>
    <text x="560" y="481" class="value-text" text-anchor="middle">1</text>
    <text x="640" y="481" class="value-text" text-anchor="middle">1</text>
    
    <!-- Layer 4 row -->
    
    <!-- Row 15: A∪B∪C∪D -->
    <circle cx="29" cy="509" r="5" fill="#0173B2" stroke="#1e293b" stroke-width="1"/>
    <circle cx="37" cy="509" r="5" fill="#DE8F05" stroke="#1e293b" stroke-width="1"/>
    <circle cx="45" cy="509" r="5" fill="#029E73" stroke="#1e293b" stroke-width="1"/>
    <circle cx="53" cy="509" r="5" fill="#CC78BC" stroke="#1e293b" stroke-width="1"/>
    <text x="62" y="513" class="table-text">A∪B∪C∪D</text>
    <text x="130" y="513" class="layer-text">Layer 4</text>
    <text x="400" y="513" class="value-text" text-anchor="middle">1</text>
    <text x="480" y="513" class="value-text" text-anchor="middle">1</text>
    <text x="560" y="513" class="value-text" text-anchor="middle">1</text>
    <text x="640" y="513" class="value-text" text-anchor="middle">1</text>
</svg>