<?xml version="1.0" encoding="utf-8" standalone="no"?>
<!DOCTYPE svg PUBLIC "-//W3C//DTD SVG 1.1//EN"
  "http://www.w3.org/Graphics/SVG/1.1/DTD/svg11.dtd">
<svg xmlns:xlink="http://www.w3.org/1999/xlink" width="586.805437pt" height="246.659057pt" viewBox="0 0 586.805437 246.659057" xmlns="http://www.w3.org/2000/svg" version="1.1">
 <metadata>
  <rdf:RDF xmlns:dc="http://purl.org/dc/elements/1.1/" xmlns:cc="http://creativecommons.org/ns#" xmlns:rdf="http://www.w3.org/1999/02/22-rdf-syntax-ns#">
   <cc:Work>
    <dc:type rdf:resource="http://purl.org/dc/dcmitype/StillImage"/>
    <dc:date>2025-12-07T18:25:19.225507</dc:date>
    <dc:format>image/svg+xml</dc:format>
    <dc:creator>
     <cc:Agent>
      <dc:title>Matplotlib v3.10.7, https://matplotlib.org/</dc:title>
     </cc:Agent>
    </dc:creator>
   </cc:Work>
  </rdf:RDF>
 </metadata>
 <defs>
  <style type="text/css">*{stroke-linejoin: round; stroke-linecap: butt}</style>
 </defs>
 <g id="figure_1">
  <g id="patch_1">
   <path d="M 0 246.659057 
L 586.805437 246.659057 
L 586.805437 0 
L 0 0 
z
" style="fill: #ffffff"/>
  </g>
  <g id="axes_1">
   <g id="patch_2">
    <path d="M 63.329438 188.4288 
L 579.605437 188.4288 
L 579.605437 7.2 
L 63.329438 7.2 
z
" style="fill: #ffffff"/>
   </g>
   <g id="matplotlib.axis_1">
    <g id="xtick_1">
     <g id="line2d_1">
      <path d="M 67.394603 188.4288 
L 67.394603 7.2 
" clip-path="url(#p111c7c625d)" style="fill: none; stroke: #b0b0b0; stroke-width: 0.8; stroke-linecap: square"/>
     </g>
     <g id="line2d_2">
      <defs>
       <path id="m09eb585756" d="M 0 0 
L 0 3.5 
" style="stroke: #000000; stroke-width: 0.8"/>
      </defs>
      <g>
       <use xlink:href="#m09eb585756" x="67.394603" y="188.4288" style="stroke: #000000; stroke-width: 0.8"/>
      </g>
     </g>
     <g id="text_1">
      <!-- 0 -->
      <g transform="translate(64.213353 203.027237) scale(0.1 -0.1)">
       <defs>
        <path id="DejaVuSans-30" d="M 2034 4250 
Q 1547 4250 1301 3770 
Q 1056 3291 1056 2328 
Q 1056 1369 1301 889 
Q 1547 409 2034 409 
Q 2525 409 2770 889 
Q 3016 1369 3016 2328 
Q 3016 3291 2770 3770 
Q 2525 4250 2034 4250 
z
M 2034 4750 
Q 2819 4750 3233 4129 
Q 3647 3509 3647 2328 
Q 3647 1150 3233 529 
Q 2819 -91 2034 -91 
Q 1250 -91 836 529 
Q 422 1150 422 2328 
Q 422 3509 836 4129 
Q 1250 4750 2034 4750 
z
" transform="scale(0.015625)"/>
       </defs>
       <use xlink:href="#DejaVuSans-30"/>
      </g>
     </g>
    </g>
    <g id="xtick_2">
     <g id="line2d_3">
      <path d="M 169.023737 188.4288 
L 169.023737 7.2 
" clip-path="url(#p111c7c625d)" style="fill: none; stroke: #b0b0b0; stroke-width: 0.8; stroke-linecap: square"/>
     </g>
     <g id="line2d_4">
      <g>
       <use xlink:href="#m09eb585756" x="169.023737" y="188.4288" style="stroke: #000000; stroke-width: 0.8"/>
      </g>
     </g>
     <g id="text_2">
      <!-- 1 -->
      <g transform="translate(165.842487 203.027237) scale(0.1 -0.1)">
       <defs>
        <path id="DejaVuSans-31" d="M 794 531 
L 1825 531 
L 1825 4091 
L 703 3866 
L 703 4441 
L 1819 4666 
L 2450 4666 
L 2450 531 
L 3481 531 
L 3481 0 
L 794 0 
L 794 531 
z
" transform="scale(0.015625)"/>
       </defs>
       <use xlink:href="#DejaVuSans-31"/>
      </g>
     </g>
    </g>
    <g id="xtick_3">
     <g id="line2d_5">
      <path d="M 270.652871 188.4288 
L 270.652871 7.2 
" clip-path="url(#p111c7c625d)" style="fill: none; stroke: #b0b0b0; stroke-width: 0.8; stroke-linecap: square"/>
     </g>
     <g id="line2d_6">
      <g>
       <use xlink:href="#m09eb585756" x="270.652871" y="188.4288" style="stroke: #000000; stroke-width: 0.8"/>
      </g>
     </g>
     <g id="text_3">
      <!-- 2 -->
      <g transform="translate(267.471621 203.027237) scale(0.1 -0.1)">
       <defs>
        <path id="DejaVuSans-32" d="M 1228 531 
L 3431 531 
L 3431 0 
L 469 0 
L 469 531 
Q 828 903 1448 1529 
Q 2069 2156 2228 2338 
Q 2531 2678 2651 2914 
Q 2772 3150 2772 3378 
Q 2772 3750 2511 3984 
Q 2250 4219 1831 4219 
Q 1534 4219 1204 4116 
Q 875 4013 500 3803 
L 500 4441 
Q 881 4594 1212 4672 
Q 1544 4750 1819 4750 
Q 2544 4750 2975 4387 
Q 3406 4025 3406 3419 
Q 3406 3131 3298 2873 
Q 3191 2616 2906 2266 
Q 2828 2175 2409 1742 
Q 1991 1309 1228 531 
z
" transform="scale(0.015625)"/>
       </defs>
       <use xlink:href="#DejaVuSans-32"/>
      </g>
     </g>
    </g>
    <g id="xtick_4">
     <g id="line2d_7">
      <path d="M 372.282004 188.4288 
L 372.282004 7.2 
" clip-path="url(#p111c7c625d)" style="fill: none; stroke: #b0b0b0; stroke-width: 0.8; stroke-linecap: square"/>
     </g>
     <g id="line2d_8">
      <g>
       <use xlink:href="#m09eb585756" x="372.282004" y="188.4288" style="stroke: #000000; stroke-width: 0.8"/>
      </g>
     </g>
     <g id="text_4">
      <!-- 3 -->
      <g transform="translate(369.100754 203.027237) scale(0.1 -0.1)">
       <defs>
        <path id="DejaVuSans-33" d="M 2597 2516 
Q 3050 2419 3304 2112 
Q 3559 1806 3559 1356 
Q 3559 666 3084 287 
Q 2609 -91 1734 -91 
Q 1441 -91 1130 -33 
Q 819 25 488 141 
L 488 750 
Q 750 597 1062 519 
Q 1375 441 1716 441 
Q 2309 441 2620 675 
Q 2931 909 2931 1356 
Q 2931 1769 2642 2001 
Q 2353 2234 1838 2234 
L 1294 2234 
L 1294 2753 
L 1863 2753 
Q 2328 2753 2575 2939 
Q 2822 3125 2822 3475 
Q 2822 3834 2567 4026 
Q 2313 4219 1838 4219 
Q 1578 4219 1281 4162 
Q 984 4106 628 3988 
L 628 4550 
Q 988 4650 1302 4700 
Q 1616 4750 1894 4750 
Q 2613 4750 3031 4423 
Q 3450 4097 3450 3541 
Q 3450 3153 3228 2886 
Q 3006 2619 2597 2516 
z
" transform="scale(0.015625)"/>
       </defs>
       <use xlink:href="#DejaVuSans-33"/>
      </g>
     </g>
    </g>
    <g id="xtick_5">
     <g id="line2d_9">
      <path d="M 473.911138 188.4288 
L 473.911138 7.2 
" clip-path="url(#p111c7c625d)" style="fill: none; stroke: #b0b0b0; stroke-width: 0.8; stroke-linecap: square"/>
     </g>
     <g id="line2d_10">
      <g>
       <use xlink:href="#m09eb585756" x="473.911138" y="188.4288" style="stroke: #000000; stroke-width: 0.8"/>
      </g>
     </g>
     <g id="text_5">
      <!-- 4 -->
      <g transform="translate(470.729888 203.027237) scale(0.1 -0.1)">
       <defs>
        <path id="DejaVuSans-34" d="M 2419 4116 
L 825 1625 
L 2419 1625 
L 2419 4116 
z
M 2253 4666 
L 3047 4666 
L 3047 1625 
L 3713 1625 
L 3713 1100 
L 3047 1100 
L 3047 0 
L 2419 0 
L 2419 1100 
L 313 1100 
L 313 1709 
L 2253 4666 
z
" transform="scale(0.015625)"/>
       </defs>
       <use xlink:href="#DejaVuSans-34"/>
      </g>
     </g>
    </g>
    <g id="xtick_6">
     <g id="line2d_11">
      <path d="M 575.540272 188.4288 
L 575.540272 7.2 
" clip-path="url(#p111c7c625d)" style="fill: none; stroke: #b0b0b0; stroke-width: 0.8; stroke-linecap: square"/>
     </g>
     <g id="line2d_12">
      <g>
       <use xlink:href="#m09eb585756" x="575.540272" y="188.4288" style="stroke: #000000; stroke-width: 0.8"/>
      </g>
     </g>
     <g id="text_6">
      <!-- 5 -->
      <g transform="translate(572.359022 203.027237) scale(0.1 -0.1)">
       <defs>
        <path id="DejaVuSans-35" d="M 691 4666 
L 3169 4666 
L 3169 4134 
L 1269 4134 
L 1269 2991 
Q 1406 3038 1543 3061 
Q 1681 3084 1819 3084 
Q 2600 3084 3056 2656 
Q 3513 2228 3513 1497 
Q 3513 744 3044 326 
Q 2575 -91 1722 -91 
Q 1428 -91 1123 -41 
Q 819 9 494 109 
L 494 744 
Q 775 591 1075 516 
Q 1375 441 1709 441 
Q 2250 441 2565 725 
Q 2881 1009 2881 1497 
Q 2881 1984 2565 2268 
Q 2250 2553 1709 2553 
Q 1456 2553 1204 2497 
Q 953 2441 691 2322 
L 691 4666 
z
" transform="scale(0.015625)"/>
       </defs>
       <use xlink:href="#DejaVuSans-35"/>
      </g>
     </g>
    </g>
    <g id="text_7">
     <!-- 1e4 -->
     <g transform="translate(560.727313 215.705362) scale(0.1 -0.1)">
      <defs>
       <path id="DejaVuSans-65" d="M 3597 1894 
L 3597 1613 
L 953 1613 
Q 991 1019 1311 708 
Q 1631 397 2203 397 
Q 2534 397 2845 478 
Q 3156 559 3463 722 
L 3463 178 
Q 3153 47 2828 -22 
Q 2503 -91 2169 -91 
Q 1331 -91 842 396 
Q 353 884 353 1716 
Q 353 2575 817 3079 
Q 1281 3584 2069 3584 
Q 2775 3584 3186 3129 
Q 3597 2675 3597 1894 
z
M 3022 2063 
Q 3016 2534 2758 2815 
Q 2500 3097 2075 3097 
Q 1594 3097 1305 2825 
Q 1016 2553 972 2059 
L 3022 2063 
z
" transform="scale(0.015625)"/>
      </defs>
      <use xlink:href="#DejaVuSans-31"/>
      <use xlink:href="#DejaVuSans-65" transform="translate(63.623047 0)"/>
      <use xlink:href="#DejaVuSans-34" transform="translate(125.146484 0)"/>
     </g>
    </g>
   </g>
   <g id="matplotlib.axis_2">
    <g id="ytick_1">
     <g id="line2d_13">
      <path d="M 63.329438 179.002889 
L 579.605437 179.002889 
" clip-path="url(#p111c7c625d)" style="fill: none; stroke: #b0b0b0; stroke-width: 0.8; stroke-linecap: square"/>
     </g>
     <g id="line2d_14">
      <defs>
       <path id="m2474de4780" d="M 0 0 
L -3.5 0 
" style="stroke: #000000; stroke-width: 0.8"/>
      </defs>
      <g>
       <use xlink:href="#m2474de4780" x="63.329438" y="179.002889" style="stroke: #000000; stroke-width: 0.8"/>
      </g>
     </g>
     <g id="text_8">
      <!-- 0.0 -->
      <g transform="translate(40.426313 182.802108) scale(0.1 -0.1)">
       <defs>
        <path id="DejaVuSans-2e" d="M 684 794 
L 1344 794 
L 1344 0 
L 684 0 
L 684 794 
z
" transform="scale(0.015625)"/>
       </defs>
       <use xlink:href="#DejaVuSans-30"/>
       <use xlink:href="#DejaVuSans-2e" transform="translate(63.623047 0)"/>
       <use xlink:href="#DejaVuSans-30" transform="translate(95.410156 0)"/>
      </g>
     </g>
    </g>
    <g id="ytick_2">
     <g id="line2d_15">
      <path d="M 63.329438 97.220281 
L 579.605437 97.220281 
" clip-path="url(#p111c7c625d)" style="fill: none; stroke: #b0b0b0; stroke-width: 0.8; stroke-linecap: square"/>
     </g>
     <g id="line2d_16">
      <g>
       <use xlink:href="#m2474de4780" x="63.329438" y="97.220281" style="stroke: #000000; stroke-width: 0.8"/>
      </g>
     </g>
     <g id="text_9">
      <!-- 0.5 -->
      <g transform="translate(40.426313 101.0195) scale(0.1 -0.1)">
       <use xlink:href="#DejaVuSans-30"/>
       <use xlink:href="#DejaVuSans-2e" transform="translate(63.623047 0)"/>
       <use xlink:href="#DejaVuSans-35" transform="translate(95.410156 0)"/>
      </g>
     </g>
    </g>
    <g id="ytick_3">
     <g id="line2d_17">
      <path d="M 63.329438 15.437673 
L 579.605437 15.437673 
" clip-path="url(#p111c7c625d)" style="fill: none; stroke: #b0b0b0; stroke-width: 0.8; stroke-linecap: square"/>
     </g>
     <g id="line2d_18">
      <g>
       <use xlink:href="#m2474de4780" x="63.329438" y="15.437673" style="stroke: #000000; stroke-width: 0.8"/>
      </g>
     </g>
     <g id="text_10">
      <!-- 1.0 -->
      <g transform="translate(40.426313 19.236891) scale(0.1 -0.1)">
       <use xlink:href="#DejaVuSans-31"/>
       <use xlink:href="#DejaVuSans-2e" transform="translate(63.623047 0)"/>
       <use xlink:href="#DejaVuSans-30" transform="translate(95.410156 0)"/>
      </g>
     </g>
    </g>
    <g id="ytick_4">
     <g id="line2d_19">
      <defs>
       <path id="mb025b0771e" d="M 0 0 
L -2 0 
" style="stroke: #000000; stroke-width: 0.6"/>
      </defs>
      <g>
       <use xlink:href="#mb025b0771e" x="63.329438" y="162.646367" style="stroke: #000000; stroke-width: 0.6"/>
      </g>
     </g>
    </g>
    <g id="ytick_5">
     <g id="line2d_20">
      <g>
       <use xlink:href="#mb025b0771e" x="63.329438" y="146.289846" style="stroke: #000000; stroke-width: 0.6"/>
      </g>
     </g>
    </g>
    <g id="ytick_6">
     <g id="line2d_21">
      <g>
       <use xlink:href="#mb025b0771e" x="63.329438" y="129.933324" style="stroke: #000000; stroke-width: 0.6"/>
      </g>
     </g>
    </g>
    <g id="ytick_7">
     <g id="line2d_22">
      <g>
       <use xlink:href="#mb025b0771e" x="63.329438" y="113.576802" style="stroke: #000000; stroke-width: 0.6"/>
      </g>
     </g>
    </g>
    <g id="ytick_8">
     <g id="line2d_23">
      <g>
       <use xlink:href="#mb025b0771e" x="63.329438" y="80.863759" style="stroke: #000000; stroke-width: 0.6"/>
      </g>
     </g>
    </g>
    <g id="ytick_9">
     <g id="line2d_24">
      <g>
       <use xlink:href="#mb025b0771e" x="63.329438" y="64.507238" style="stroke: #000000; stroke-width: 0.6"/>
      </g>
     </g>
    </g>
    <g id="ytick_10">
     <g id="line2d_25">
      <g>
       <use xlink:href="#mb025b0771e" x="63.329438" y="48.150716" style="stroke: #000000; stroke-width: 0.6"/>
      </g>
     </g>
    </g>
    <g id="ytick_11">
     <g id="line2d_26">
      <g>
       <use xlink:href="#mb025b0771e" x="63.329438" y="31.794194" style="stroke: #000000; stroke-width: 0.6"/>
      </g>
     </g>
    </g>
    <g id="text_11">
     <!-- suceess rate -->
     <g transform="translate(17.837813 142.097056) rotate(-90) scale(0.14 -0.14)">
      <defs>
       <path id="DejaVuSans-73" d="M 2834 3397 
L 2834 2853 
Q 2591 2978 2328 3040 
Q 2066 3103 1784 3103 
Q 1356 3103 1142 2972 
Q 928 2841 928 2578 
Q 928 2378 1081 2264 
Q 1234 2150 1697 2047 
L 1894 2003 
Q 2506 1872 2764 1633 
Q 3022 1394 3022 966 
Q 3022 478 2636 193 
Q 2250 -91 1575 -91 
Q 1294 -91 989 -36 
Q 684 19 347 128 
L 347 722 
Q 666 556 975 473 
Q 1284 391 1588 391 
Q 1994 391 2212 530 
Q 2431 669 2431 922 
Q 2431 1156 2273 1281 
Q 2116 1406 1581 1522 
L 1381 1569 
Q 847 1681 609 1914 
Q 372 2147 372 2553 
Q 372 3047 722 3315 
Q 1072 3584 1716 3584 
Q 2034 3584 2315 3537 
Q 2597 3491 2834 3397 
z
" transform="scale(0.015625)"/>
       <path id="DejaVuSans-75" d="M 544 1381 
L 544 3500 
L 1119 3500 
L 1119 1403 
Q 1119 906 1312 657 
Q 1506 409 1894 409 
Q 2359 409 2629 706 
Q 2900 1003 2900 1516 
L 2900 3500 
L 3475 3500 
L 3475 0 
L 2900 0 
L 2900 538 
Q 2691 219 2414 64 
Q 2138 -91 1772 -91 
Q 1169 -91 856 284 
Q 544 659 544 1381 
z
M 1991 3584 
L 1991 3584 
z
" transform="scale(0.015625)"/>
       <path id="DejaVuSans-63" d="M 3122 3366 
L 3122 2828 
Q 2878 2963 2633 3030 
Q 2388 3097 2138 3097 
Q 1578 3097 1268 2742 
Q 959 2388 959 1747 
Q 959 1106 1268 751 
Q 1578 397 2138 397 
Q 2388 397 2633 464 
Q 2878 531 3122 666 
L 3122 134 
Q 2881 22 2623 -34 
Q 2366 -91 2075 -91 
Q 1284 -91 818 406 
Q 353 903 353 1747 
Q 353 2603 823 3093 
Q 1294 3584 2113 3584 
Q 2378 3584 2631 3529 
Q 2884 3475 3122 3366 
z
" transform="scale(0.015625)"/>
       <path id="DejaVuSans-20" transform="scale(0.015625)"/>
       <path id="DejaVuSans-72" d="M 2631 2963 
Q 2534 3019 2420 3045 
Q 2306 3072 2169 3072 
Q 1681 3072 1420 2755 
Q 1159 2438 1159 1844 
L 1159 0 
L 581 0 
L 581 3500 
L 1159 3500 
L 1159 2956 
Q 1341 3275 1631 3429 
Q 1922 3584 2338 3584 
Q 2397 3584 2469 3576 
Q 2541 3569 2628 3553 
L 2631 2963 
z
" transform="scale(0.015625)"/>
       <path id="DejaVuSans-61" d="M 2194 1759 
Q 1497 1759 1228 1600 
Q 959 1441 959 1056 
Q 959 750 1161 570 
Q 1363 391 1709 391 
Q 2188 391 2477 730 
Q 2766 1069 2766 1631 
L 2766 1759 
L 2194 1759 
z
M 3341 1997 
L 3341 0 
L 2766 0 
L 2766 531 
Q 2569 213 2275 61 
Q 1981 -91 1556 -91 
Q 1019 -91 701 211 
Q 384 513 384 1019 
Q 384 1609 779 1909 
Q 1175 2209 1959 2209 
L 2766 2209 
L 2766 2266 
Q 2766 2663 2505 2880 
Q 2244 3097 1772 3097 
Q 1472 3097 1187 3025 
Q 903 2953 641 2809 
L 641 3341 
Q 956 3463 1253 3523 
Q 1550 3584 1831 3584 
Q 2591 3584 2966 3190 
Q 3341 2797 3341 1997 
z
" transform="scale(0.015625)"/>
       <path id="DejaVuSans-74" d="M 1172 4494 
L 1172 3500 
L 2356 3500 
L 2356 3053 
L 1172 3053 
L 1172 1153 
Q 1172 725 1289 603 
Q 1406 481 1766 481 
L 2356 481 
L 2356 0 
L 1766 0 
Q 1100 0 847 248 
Q 594 497 594 1153 
L 594 3053 
L 172 3053 
L 172 3500 
L 594 3500 
L 594 4494 
L 1172 4494 
z
" transform="scale(0.015625)"/>
      </defs>
      <use xlink:href="#DejaVuSans-73"/>
      <use xlink:href="#DejaVuSans-75" transform="translate(52.099609 0)"/>
      <use xlink:href="#DejaVuSans-63" transform="translate(115.478516 0)"/>
      <use xlink:href="#DejaVuSans-65" transform="translate(170.458984 0)"/>
      <use xlink:href="#DejaVuSans-65" transform="translate(231.982422 0)"/>
      <use xlink:href="#DejaVuSans-73" transform="translate(293.505859 0)"/>
      <use xlink:href="#DejaVuSans-73" transform="translate(345.605469 0)"/>
      <use xlink:href="#DejaVuSans-20" transform="translate(397.705078 0)"/>
      <use xlink:href="#DejaVuSans-72" transform="translate(429.492188 0)"/>
      <use xlink:href="#DejaVuSans-61" transform="translate(470.605469 0)"/>
      <use xlink:href="#DejaVuSans-74" transform="translate(531.884766 0)"/>
      <use xlink:href="#DejaVuSans-65" transform="translate(571.09375 0)"/>
     </g>
     <!-- in the original MDP -->
     <g transform="translate(33.51475 164.172212) rotate(-90) scale(0.14 -0.14)">
      <defs>
       <path id="DejaVuSans-69" d="M 603 3500 
L 1178 3500 
L 1178 0 
L 603 0 
L 603 3500 
z
M 603 4863 
L 1178 4863 
L 1178 4134 
L 603 4134 
L 603 4863 
z
" transform="scale(0.015625)"/>
       <path id="DejaVuSans-6e" d="M 3513 2113 
L 3513 0 
L 2938 0 
L 2938 2094 
Q 2938 2591 2744 2837 
Q 2550 3084 2163 3084 
Q 1697 3084 1428 2787 
Q 1159 2491 1159 1978 
L 1159 0 
L 581 0 
L 581 3500 
L 1159 3500 
L 1159 2956 
Q 1366 3272 1645 3428 
Q 1925 3584 2291 3584 
Q 2894 3584 3203 3211 
Q 3513 2838 3513 2113 
z
" transform="scale(0.015625)"/>
       <path id="DejaVuSans-68" d="M 3513 2113 
L 3513 0 
L 2938 0 
L 2938 2094 
Q 2938 2591 2744 2837 
Q 2550 3084 2163 3084 
Q 1697 3084 1428 2787 
Q 1159 2491 1159 1978 
L 1159 0 
L 581 0 
L 581 4863 
L 1159 4863 
L 1159 2956 
Q 1366 3272 1645 3428 
Q 1925 3584 2291 3584 
Q 2894 3584 3203 3211 
Q 3513 2838 3513 2113 
z
" transform="scale(0.015625)"/>
       <path id="DejaVuSans-6f" d="M 1959 3097 
Q 1497 3097 1228 2736 
Q 959 2375 959 1747 
Q 959 1119 1226 758 
Q 1494 397 1959 397 
Q 2419 397 2687 759 
Q 2956 1122 2956 1747 
Q 2956 2369 2687 2733 
Q 2419 3097 1959 3097 
z
M 1959 3584 
Q 2709 3584 3137 3096 
Q 3566 2609 3566 1747 
Q 3566 888 3137 398 
Q 2709 -91 1959 -91 
Q 1206 -91 779 398 
Q 353 888 353 1747 
Q 353 2609 779 3096 
Q 1206 3584 1959 3584 
z
" transform="scale(0.015625)"/>
       <path id="DejaVuSans-67" d="M 2906 1791 
Q 2906 2416 2648 2759 
Q 2391 3103 1925 3103 
Q 1463 3103 1205 2759 
Q 947 2416 947 1791 
Q 947 1169 1205 825 
Q 1463 481 1925 481 
Q 2391 481 2648 825 
Q 2906 1169 2906 1791 
z
M 3481 434 
Q 3481 -459 3084 -895 
Q 2688 -1331 1869 -1331 
Q 1566 -1331 1297 -1286 
Q 1028 -1241 775 -1147 
L 775 -588 
Q 1028 -725 1275 -790 
Q 1522 -856 1778 -856 
Q 2344 -856 2625 -561 
Q 2906 -266 2906 331 
L 2906 616 
Q 2728 306 2450 153 
Q 2172 0 1784 0 
Q 1141 0 747 490 
Q 353 981 353 1791 
Q 353 2603 747 3093 
Q 1141 3584 1784 3584 
Q 2172 3584 2450 3431 
Q 2728 3278 2906 2969 
L 2906 3500 
L 3481 3500 
L 3481 434 
z
" transform="scale(0.015625)"/>
       <path id="DejaVuSans-6c" d="M 603 4863 
L 1178 4863 
L 1178 0 
L 603 0 
L 603 4863 
z
" transform="scale(0.015625)"/>
       <path id="DejaVuSans-4d" d="M 628 4666 
L 1569 4666 
L 2759 1491 
L 3956 4666 
L 4897 4666 
L 4897 0 
L 4281 0 
L 4281 4097 
L 3078 897 
L 2444 897 
L 1241 4097 
L 1241 0 
L 628 0 
L 628 4666 
z
" transform="scale(0.015625)"/>
       <path id="DejaVuSans-44" d="M 1259 4147 
L 1259 519 
L 2022 519 
Q 2988 519 3436 956 
Q 3884 1394 3884 2338 
Q 3884 3275 3436 3711 
Q 2988 4147 2022 4147 
L 1259 4147 
z
M 628 4666 
L 1925 4666 
Q 3281 4666 3915 4102 
Q 4550 3538 4550 2338 
Q 4550 1131 3912 565 
Q 3275 0 1925 0 
L 628 0 
L 628 4666 
z
" transform="scale(0.015625)"/>
       <path id="DejaVuSans-50" d="M 1259 4147 
L 1259 2394 
L 2053 2394 
Q 2494 2394 2734 2622 
Q 2975 2850 2975 3272 
Q 2975 3691 2734 3919 
Q 2494 4147 2053 4147 
L 1259 4147 
z
M 628 4666 
L 2053 4666 
Q 2838 4666 3239 4311 
Q 3641 3956 3641 3272 
Q 3641 2581 3239 2228 
Q 2838 1875 2053 1875 
L 1259 1875 
L 1259 0 
L 628 0 
L 628 4666 
z
" transform="scale(0.015625)"/>
      </defs>
      <use xlink:href="#DejaVuSans-69"/>
      <use xlink:href="#DejaVuSans-6e" transform="translate(27.783203 0)"/>
      <use xlink:href="#DejaVuSans-20" transform="translate(91.162109 0)"/>
      <use xlink:href="#DejaVuSans-74" transform="translate(122.949219 0)"/>
      <use xlink:href="#DejaVuSans-68" transform="translate(162.158203 0)"/>
      <use xlink:href="#DejaVuSans-65" transform="translate(225.537109 0)"/>
      <use xlink:href="#DejaVuSans-20" transform="translate(287.060547 0)"/>
      <use xlink:href="#DejaVuSans-6f" transform="translate(318.847656 0)"/>
      <use xlink:href="#DejaVuSans-72" transform="translate(380.029297 0)"/>
      <use xlink:href="#DejaVuSans-69" transform="translate(421.142578 0)"/>
      <use xlink:href="#DejaVuSans-67" transform="translate(448.925781 0)"/>
      <use xlink:href="#DejaVuSans-69" transform="translate(512.402344 0)"/>
      <use xlink:href="#DejaVuSans-6e" transform="translate(540.185547 0)"/>
      <use xlink:href="#DejaVuSans-61" transform="translate(603.564453 0)"/>
      <use xlink:href="#DejaVuSans-6c" transform="translate(664.84375 0)"/>
      <use xlink:href="#DejaVuSans-20" transform="translate(692.626953 0)"/>
      <use xlink:href="#DejaVuSans-4d" transform="translate(724.414062 0)"/>
      <use xlink:href="#DejaVuSans-44" transform="translate(810.693359 0)"/>
      <use xlink:href="#DejaVuSans-50" transform="translate(887.695312 0)"/>
     </g>
    </g>
   </g>
   <g id="patch_3">
    <path d="M 63.329438 188.4288 
L 63.329438 7.2 
" style="fill: none; stroke: #000000; stroke-width: 0.8; stroke-linejoin: miter; stroke-linecap: square"/>
   </g>
   <g id="patch_4">
    <path d="M 579.605437 188.4288 
L 579.605437 7.2 
" style="fill: none; stroke: #000000; stroke-width: 0.8; stroke-linejoin: miter; stroke-linecap: square"/>
   </g>
   <g id="patch_5">
    <path d="M 63.329438 188.4288 
L 579.605437 188.4288 
" style="fill: none; stroke: #000000; stroke-width: 0.8; stroke-linejoin: miter; stroke-linecap: square"/>
   </g>
   <g id="patch_6">
    <path d="M 63.329438 7.2 
L 579.605437 7.2 
" style="fill: none; stroke: #000000; stroke-width: 0.8; stroke-linejoin: miter; stroke-linecap: square"/>
   </g>
   <g id="line2d_27">
    <path d="M 67.404766 176.549411 
L 92.801886 176.549411 
L 118.20917 169.597889 
L 143.616453 146.289846 
L 169.023737 51.830933 
L 194.43102 15.437673 
L 219.838304 15.437673 
L 245.245587 15.437673 
L 270.652871 15.437673 
L 296.060154 15.437673 
L 321.467437 15.437673 
L 346.874721 15.437673 
L 372.282004 15.437673 
L 397.689288 15.437673 
L 423.096571 15.437673 
L 448.503855 15.437673 
L 473.911138 15.437673 
L 499.318422 15.437673 
L 524.725705 15.437673 
L 550.132989 15.437673 
L 575.540272 15.437673 
" clip-path="url(#p111c7c625d)" style="fill: none; stroke: #1f77b4; stroke-width: 1.5; stroke-linecap: square"/>
   </g>
   <g id="FillBetweenPolyCollection_1">
    <defs>
     <path id="ma879550d36" d="M 67.404766 -73.378405 
L 67.404766 -66.840888 
L 92.801886 -66.840888 
L 118.20917 -70.988781 
L 143.616453 -86.200628 
L 169.023737 -172.703518 
L 194.43102 -231.221385 
L 219.838304 -231.221385 
L 245.245587 -231.221385 
L 270.652871 -231.221385 
L 296.060154 -231.221385 
L 321.467437 -231.221385 
L 346.874721 -231.221385 
L 372.282004 -231.221385 
L 397.689288 -231.221385 
L 423.096571 -231.221385 
L 448.503855 -231.221385 
L 473.911138 -231.221385 
L 499.318422 -231.221385 
L 524.725705 -231.221385 
L 550.132989 -231.221385 
L 575.540272 -231.221385 
L 575.540272 -231.221385 
L 575.540272 -231.221385 
L 550.132989 -231.221385 
L 524.725705 -231.221385 
L 499.318422 -231.221385 
L 473.911138 -231.221385 
L 448.503855 -231.221385 
L 423.096571 -231.221385 
L 397.689288 -231.221385 
L 372.282004 -231.221385 
L 346.874721 -231.221385 
L 321.467437 -231.221385 
L 296.060154 -231.221385 
L 270.652871 -231.221385 
L 245.245587 -231.221385 
L 219.838304 -231.221385 
L 194.43102 -231.221385 
L 169.023737 -216.95273 
L 143.616453 -114.537795 
L 118.20917 -83.133556 
L 92.801886 -73.378405 
L 67.404766 -73.378405 
z
"/>
    </defs>
    <g clip-path="url(#p111c7c625d)">
     <use xlink:href="#ma879550d36" x="0" y="246.659057" style="fill: #1f77b4; fill-opacity: 0.3"/>
    </g>
   </g>
   <g id="line2d_28">
    <path d="M 67.404766 176.549411 
L 92.801886 177.367237 
L 118.20917 179.002889 
L 143.616453 179.002889 
L 169.023737 179.002889 
L 194.43102 179.002889 
L 219.838304 179.002889 
L 245.245587 179.002889 
L 270.652871 177.367237 
L 296.060154 179.002889 
L 321.467437 179.002889 
L 346.874721 179.002889 
L 372.282004 179.002889 
L 397.689288 179.002889 
L 423.096571 179.002889 
L 448.503855 179.002889 
L 473.911138 179.002889 
L 499.318422 179.002889 
L 524.725705 179.002889 
L 550.132989 179.002889 
L 575.540272 179.002889 
" clip-path="url(#p111c7c625d)" style="fill: none; stroke: #ff7f0e; stroke-width: 1.5; stroke-linecap: square"/>
   </g>
   <g id="FillBetweenPolyCollection_2">
    <defs>
     <path id="m3e37a9d0aa" d="M 67.404766 -73.654509 
L 67.404766 -66.564784 
L 92.801886 -66.46793 
L 118.20917 -67.656169 
L 143.616453 -67.656169 
L 169.023737 -67.656169 
L 194.43102 -67.656169 
L 219.838304 -67.656169 
L 245.245587 -67.656169 
L 270.652871 -66.46793 
L 296.060154 -67.656169 
L 321.467437 -67.656169 
L 346.874721 -67.656169 
L 372.282004 -67.656169 
L 397.689288 -67.656169 
L 423.096571 -67.656169 
L 448.503855 -67.656169 
L 473.911138 -67.656169 
L 499.318422 -67.656169 
L 524.725705 -67.656169 
L 550.132989 -67.656169 
L 575.540272 -67.656169 
L 575.540272 -67.656169 
L 575.540272 -67.656169 
L 550.132989 -67.656169 
L 524.725705 -67.656169 
L 499.318422 -67.656169 
L 473.911138 -67.656169 
L 448.503855 -67.656169 
L 423.096571 -67.656169 
L 397.689288 -67.656169 
L 372.282004 -67.656169 
L 346.874721 -67.656169 
L 321.467437 -67.656169 
L 296.060154 -67.656169 
L 270.652871 -72.115711 
L 245.245587 -67.656169 
L 219.838304 -67.656169 
L 194.43102 -67.656169 
L 169.023737 -67.656169 
L 143.616453 -67.656169 
L 118.20917 -67.656169 
L 92.801886 -72.115711 
L 67.404766 -73.654509 
z
"/>
    </defs>
    <g clip-path="url(#p111c7c625d)">
     <use xlink:href="#m3e37a9d0aa" x="0" y="246.659057" style="fill: #ff7f0e; fill-opacity: 0.3"/>
    </g>
   </g>
   <g id="line2d_29">
    <path d="M 67.404766 179.002889 
L 92.801886 179.002889 
L 118.20917 179.002889 
L 143.616453 179.002889 
L 169.023737 179.002889 
L 194.43102 179.002889 
L 219.838304 179.002889 
L 245.245587 179.002889 
L 270.652871 179.002889 
L 296.060154 179.002889 
L 321.467437 179.002889 
L 346.874721 179.002889 
L 372.282004 179.002889 
L 397.689288 179.002889 
L 423.096571 179.002889 
L 448.503855 179.002889 
L 473.911138 179.002889 
L 499.318422 179.002889 
L 524.725705 179.002889 
L 550.132989 179.002889 
L 575.540272 179.002889 
" clip-path="url(#p111c7c625d)" style="fill: none; stroke: #2ca02c; stroke-width: 1.5; stroke-linecap: square"/>
   </g>
   <g id="FillBetweenPolyCollection_3">
    <defs>
     <path id="m9faae91506" d="M 67.404766 -67.656169 
L 67.404766 -67.656169 
L 92.801886 -67.656169 
L 118.20917 -67.656169 
L 143.616453 -67.656169 
L 169.023737 -67.656169 
L 194.43102 -67.656169 
L 219.838304 -67.656169 
L 245.245587 -67.656169 
L 270.652871 -67.656169 
L 296.060154 -67.656169 
L 321.467437 -67.656169 
L 346.874721 -67.656169 
L 372.282004 -67.656169 
L 397.689288 -67.656169 
L 423.096571 -67.656169 
L 448.503855 -67.656169 
L 473.911138 -67.656169 
L 499.318422 -67.656169 
L 524.725705 -67.656169 
L 550.132989 -67.656169 
L 575.540272 -67.656169 
L 575.540272 -67.656169 
L 575.540272 -67.656169 
L 550.132989 -67.656169 
L 524.725705 -67.656169 
L 499.318422 -67.656169 
L 473.911138 -67.656169 
L 448.503855 -67.656169 
L 423.096571 -67.656169 
L 397.689288 -67.656169 
L 372.282004 -67.656169 
L 346.874721 -67.656169 
L 321.467437 -67.656169 
L 296.060154 -67.656169 
L 270.652871 -67.656169 
L 245.245587 -67.656169 
L 219.838304 -67.656169 
L 194.43102 -67.656169 
L 169.023737 -67.656169 
L 143.616453 -67.656169 
L 118.20917 -67.656169 
L 92.801886 -67.656169 
L 67.404766 -67.656169 
z
"/>
    </defs>
    <g clip-path="url(#p111c7c625d)">
     <use xlink:href="#m9faae91506" x="0" y="246.659057" style="fill: #2ca02c; fill-opacity: 0.3"/>
    </g>
   </g>
   <g id="line2d_30">
    <path d="M 67.404766 178.185063 
L 92.801886 179.002889 
L 118.20917 178.185063 
L 143.616453 178.185063 
L 169.023737 179.002889 
L 194.43102 179.002889 
L 219.838304 176.140498 
L 245.245587 179.002889 
L 270.652871 175.322672 
L 296.060154 176.549411 
L 321.467437 179.002889 
L 346.874721 178.593976 
L 372.282004 172.869193 
L 397.689288 176.140498 
L 423.096571 171.233541 
L 448.503855 173.687019 
L 473.911138 172.46028 
L 499.318422 177.77615 
L 524.725705 176.140498 
L 550.132989 172.46028 
L 575.540272 175.322672 
" clip-path="url(#p111c7c625d)" style="fill: none; stroke: #d62728; stroke-width: 1.5; stroke-linecap: square"/>
   </g>
   <g id="FillBetweenPolyCollection_4">
    <defs>
     <path id="m5fe1a77d61" d="M 67.404766 -69.655615 
L 67.404766 -67.292374 
L 92.801886 -67.656169 
L 118.20917 -67.292374 
L 143.616453 -67.292374 
L 169.023737 -67.656169 
L 194.43102 -67.656169 
L 219.838304 -68.692976 
L 245.245587 -67.656169 
L 270.652871 -67.491814 
L 296.060154 -66.564784 
L 321.467437 -67.656169 
L 346.874721 -67.474271 
L 372.282004 -70.10122 
L 397.689288 -68.065445 
L 423.096571 -71.69332 
L 448.503855 -70.000833 
L 473.911138 -68.65721 
L 499.318422 -67.110476 
L 524.725705 -68.288674 
L 550.132989 -70.496206 
L 575.540272 -68.472132 
L 575.540272 -74.20064 
L 575.540272 -74.20064 
L 550.132989 -77.901349 
L 524.725705 -72.748445 
L 499.318422 -70.655339 
L 473.911138 -79.740344 
L 448.503855 -75.943243 
L 423.096571 -79.157713 
L 397.689288 -72.971675 
L 372.282004 -77.478508 
L 346.874721 -68.655892 
L 321.467437 -67.656169 
L 296.060154 -73.654509 
L 270.652871 -75.180958 
L 245.245587 -67.656169 
L 219.838304 -72.344143 
L 194.43102 -67.656169 
L 169.023737 -67.656169 
L 143.616453 -69.655615 
L 118.20917 -69.655615 
L 92.801886 -67.656169 
L 67.404766 -69.655615 
z
"/>
    </defs>
    <g clip-path="url(#p111c7c625d)">
     <use xlink:href="#m5fe1a77d61" x="0" y="246.659057" style="fill: #d62728; fill-opacity: 0.3"/>
    </g>
   </g>
   <g id="line2d_31">
    <path d="M 67.404766 179.002889 
L 92.801886 167.962237 
L 118.20917 160.192889 
L 143.616453 167.553324 
L 169.023737 166.735498 
L 194.43102 168.780063 
L 219.838304 170.415715 
L 245.245587 167.144411 
L 270.652871 170.006802 
L 296.060154 162.237454 
L 321.467437 161.419628 
L 346.874721 165.917672 
L 372.282004 159.375063 
L 397.689288 168.780063 
L 423.096571 163.873106 
L 448.503855 159.783976 
L 473.911138 164.28202 
L 499.318422 165.917672 
L 524.725705 162.646367 
L 550.132989 165.508759 
L 575.540272 158.96615 
" clip-path="url(#p111c7c625d)" style="fill: none; stroke: #9467bd; stroke-width: 1.5; stroke-linecap: square"/>
   </g>
   <g id="FillBetweenPolyCollection_5">
    <defs>
     <path id="m1ae93bc2fb" d="M 67.404766 -67.656169 
L 67.404766 -67.656169 
L 92.801886 -71.661543 
L 118.20917 -80.93402 
L 143.616453 -73.419248 
L 169.023737 -77.640335 
L 194.43102 -73.811798 
L 219.838304 -74.456633 
L 245.245587 -73.822167 
L 270.652871 -67.206081 
L 296.060154 -78.454489 
L 321.467437 -79.478134 
L 346.874721 -74.143862 
L 372.282004 -81.505663 
L 397.689288 -73.371797 
L 423.096571 -75.789373 
L 448.503855 -80.229958 
L 473.911138 -72.883422 
L 499.318422 -78.83178 
L 524.725705 -71.206568 
L 550.132989 -70.292089 
L 575.540272 -80.9672 
L 575.540272 -94.418615 
L 575.540272 -94.418615 
L 550.132989 -92.008509 
L 524.725705 -96.818812 
L 499.318422 -82.650992 
L 473.911138 -91.870654 
L 448.503855 -93.520205 
L 423.096571 -89.782529 
L 397.689288 -82.386192 
L 372.282004 -93.062326 
L 346.874721 -87.33891 
L 321.467437 -91.000724 
L 296.060154 -90.388717 
L 270.652871 -86.09843 
L 245.245587 -85.207127 
L 219.838304 -78.030051 
L 194.43102 -81.946191 
L 169.023737 -82.206784 
L 143.616453 -84.79222 
L 118.20917 -91.998317 
L 92.801886 -85.732098 
L 67.404766 -67.656169 
z
"/>
    </defs>
    <g clip-path="url(#p111c7c625d)">
     <use xlink:href="#m1ae93bc2fb" x="0" y="246.659057" style="fill: #9467bd; fill-opacity: 0.3"/>
    </g>
   </g>
   <g id="legend_1">
    <g id="patch_7">
     <path d="M 120.457038 239.459057 
L 525.023288 239.459057 
L 525.023288 221.11312 
L 120.457038 221.11312 
z
" style="fill: #ffffff; opacity: 0.8; stroke: #cccccc; stroke-linejoin: miter"/>
    </g>
    <g id="line2d_32">
     <path d="M 124.307038 229.471401 
L 133.657038 229.471401 
L 143.007037 229.471401 
" style="fill: none; stroke: #1f77b4; stroke-width: 1.5; stroke-linecap: square"/>
    </g>
    <g id="text_12">
     <!-- Q-learning -->
     <g transform="translate(151.807038 233.321401) scale(0.11 -0.11)">
      <defs>
       <path id="DejaVuSans-51" d="M 2522 4238 
Q 1834 4238 1429 3725 
Q 1025 3213 1025 2328 
Q 1025 1447 1429 934 
Q 1834 422 2522 422 
Q 3209 422 3611 934 
Q 4013 1447 4013 2328 
Q 4013 3213 3611 3725 
Q 3209 4238 2522 4238 
z
M 3406 84 
L 4238 -825 
L 3475 -825 
L 2784 -78 
Q 2681 -84 2626 -87 
Q 2572 -91 2522 -91 
Q 1538 -91 948 567 
Q 359 1225 359 2328 
Q 359 3434 948 4092 
Q 1538 4750 2522 4750 
Q 3503 4750 4090 4092 
Q 4678 3434 4678 2328 
Q 4678 1516 4351 937 
Q 4025 359 3406 84 
z
" transform="scale(0.015625)"/>
       <path id="DejaVuSans-2d" d="M 313 2009 
L 1997 2009 
L 1997 1497 
L 313 1497 
L 313 2009 
z
" transform="scale(0.015625)"/>
      </defs>
      <use xlink:href="#DejaVuSans-51"/>
      <use xlink:href="#DejaVuSans-2d" transform="translate(81.460938 0)"/>
      <use xlink:href="#DejaVuSans-6c" transform="translate(117.544922 0)"/>
      <use xlink:href="#DejaVuSans-65" transform="translate(145.328125 0)"/>
      <use xlink:href="#DejaVuSans-61" transform="translate(206.851562 0)"/>
      <use xlink:href="#DejaVuSans-72" transform="translate(268.130859 0)"/>
      <use xlink:href="#DejaVuSans-6e" transform="translate(307.494141 0)"/>
      <use xlink:href="#DejaVuSans-69" transform="translate(370.873047 0)"/>
      <use xlink:href="#DejaVuSans-6e" transform="translate(398.65625 0)"/>
      <use xlink:href="#DejaVuSans-67" transform="translate(462.035156 0)"/>
     </g>
    </g>
    <g id="line2d_33">
     <path d="M 222.896256 229.471401 
L 232.246256 229.471401 
L 241.596256 229.471401 
" style="fill: none; stroke: #ff7f0e; stroke-width: 1.5; stroke-linecap: square"/>
    </g>
    <g id="text_13">
     <!-- GCQL -->
     <g transform="translate(250.396256 233.321401) scale(0.11 -0.11)">
      <defs>
       <path id="DejaVuSans-47" d="M 3809 666 
L 3809 1919 
L 2778 1919 
L 2778 2438 
L 4434 2438 
L 4434 434 
Q 4069 175 3628 42 
Q 3188 -91 2688 -91 
Q 1594 -91 976 548 
Q 359 1188 359 2328 
Q 359 3472 976 4111 
Q 1594 4750 2688 4750 
Q 3144 4750 3555 4637 
Q 3966 4525 4313 4306 
L 4313 3634 
Q 3963 3931 3569 4081 
Q 3175 4231 2741 4231 
Q 1884 4231 1454 3753 
Q 1025 3275 1025 2328 
Q 1025 1384 1454 906 
Q 1884 428 2741 428 
Q 3075 428 3337 486 
Q 3600 544 3809 666 
z
" transform="scale(0.015625)"/>
       <path id="DejaVuSans-43" d="M 4122 4306 
L 4122 3641 
Q 3803 3938 3442 4084 
Q 3081 4231 2675 4231 
Q 1875 4231 1450 3742 
Q 1025 3253 1025 2328 
Q 1025 1406 1450 917 
Q 1875 428 2675 428 
Q 3081 428 3442 575 
Q 3803 722 4122 1019 
L 4122 359 
Q 3791 134 3420 21 
Q 3050 -91 2638 -91 
Q 1578 -91 968 557 
Q 359 1206 359 2328 
Q 359 3453 968 4101 
Q 1578 4750 2638 4750 
Q 3056 4750 3426 4639 
Q 3797 4528 4122 4306 
z
" transform="scale(0.015625)"/>
       <path id="DejaVuSans-4c" d="M 628 4666 
L 1259 4666 
L 1259 531 
L 3531 531 
L 3531 0 
L 628 0 
L 628 4666 
z
" transform="scale(0.015625)"/>
      </defs>
      <use xlink:href="#DejaVuSans-47"/>
      <use xlink:href="#DejaVuSans-43" transform="translate(77.490234 0)"/>
      <use xlink:href="#DejaVuSans-51" transform="translate(147.314453 0)"/>
      <use xlink:href="#DejaVuSans-4c" transform="translate(226.025391 0)"/>
     </g>
    </g>
    <g id="line2d_34">
     <path d="M 294.671256 229.471401 
L 304.021256 229.471401 
L 313.371256 229.471401 
" style="fill: none; stroke: #2ca02c; stroke-width: 1.5; stroke-linecap: square"/>
    </g>
    <g id="text_14">
     <!-- GCQL w/ HER -->
     <g transform="translate(322.171256 233.321401) scale(0.11 -0.11)">
      <defs>
       <path id="DejaVuSans-77" d="M 269 3500 
L 844 3500 
L 1563 769 
L 2278 3500 
L 2956 3500 
L 3675 769 
L 4391 3500 
L 4966 3500 
L 4050 0 
L 3372 0 
L 2619 2869 
L 1863 0 
L 1184 0 
L 269 3500 
z
" transform="scale(0.015625)"/>
       <path id="DejaVuSans-2f" d="M 1625 4666 
L 2156 4666 
L 531 -594 
L 0 -594 
L 1625 4666 
z
" transform="scale(0.015625)"/>
       <path id="DejaVuSans-48" d="M 628 4666 
L 1259 4666 
L 1259 2753 
L 3553 2753 
L 3553 4666 
L 4184 4666 
L 4184 0 
L 3553 0 
L 3553 2222 
L 1259 2222 
L 1259 0 
L 628 0 
L 628 4666 
z
" transform="scale(0.015625)"/>
       <path id="DejaVuSans-45" d="M 628 4666 
L 3578 4666 
L 3578 4134 
L 1259 4134 
L 1259 2753 
L 3481 2753 
L 3481 2222 
L 1259 2222 
L 1259 531 
L 3634 531 
L 3634 0 
L 628 0 
L 628 4666 
z
" transform="scale(0.015625)"/>
       <path id="DejaVuSans-52" d="M 2841 2188 
Q 3044 2119 3236 1894 
Q 3428 1669 3622 1275 
L 4263 0 
L 3584 0 
L 2988 1197 
Q 2756 1666 2539 1819 
Q 2322 1972 1947 1972 
L 1259 1972 
L 1259 0 
L 628 0 
L 628 4666 
L 2053 4666 
Q 2853 4666 3247 4331 
Q 3641 3997 3641 3322 
Q 3641 2881 3436 2590 
Q 3231 2300 2841 2188 
z
M 1259 4147 
L 1259 2491 
L 2053 2491 
Q 2509 2491 2742 2702 
Q 2975 2913 2975 3322 
Q 2975 3731 2742 3939 
Q 2509 4147 2053 4147 
L 1259 4147 
z
" transform="scale(0.015625)"/>
      </defs>
      <use xlink:href="#DejaVuSans-47"/>
      <use xlink:href="#DejaVuSans-43" transform="translate(77.490234 0)"/>
      <use xlink:href="#DejaVuSans-51" transform="translate(147.314453 0)"/>
      <use xlink:href="#DejaVuSans-4c" transform="translate(226.025391 0)"/>
      <use xlink:href="#DejaVuSans-20" transform="translate(281.738281 0)"/>
      <use xlink:href="#DejaVuSans-77" transform="translate(313.525391 0)"/>
      <use xlink:href="#DejaVuSans-2f" transform="translate(395.3125 0)"/>
      <use xlink:href="#DejaVuSans-20" transform="translate(429.003906 0)"/>
      <use xlink:href="#DejaVuSans-48" transform="translate(460.791016 0)"/>
      <use xlink:href="#DejaVuSans-45" transform="translate(535.986328 0)"/>
      <use xlink:href="#DejaVuSans-52" transform="translate(599.169922 0)"/>
     </g>
    </g>
    <g id="line2d_35">
     <path d="M 409.005944 229.471401 
L 418.355944 229.471401 
L 427.705944 229.471401 
" style="fill: none; stroke: #d62728; stroke-width: 1.5; stroke-linecap: square"/>
    </g>
    <g id="text_15">
     <!-- CRL -->
     <g transform="translate(436.505944 233.321401) scale(0.11 -0.11)">
      <use xlink:href="#DejaVuSans-43"/>
      <use xlink:href="#DejaVuSans-52" transform="translate(69.824219 0)"/>
      <use xlink:href="#DejaVuSans-4c" transform="translate(139.306641 0)"/>
     </g>
    </g>
    <g id="line2d_36">
     <path d="M 471.241881 229.471401 
L 480.591881 229.471401 
L 489.941881 229.471401 
" style="fill: none; stroke: #9467bd; stroke-width: 1.5; stroke-linecap: square"/>
    </g>
    <g id="text_16">
     <!-- QRL -->
     <g transform="translate(498.741881 233.321401) scale(0.11 -0.11)">
      <use xlink:href="#DejaVuSans-51"/>
      <use xlink:href="#DejaVuSans-52" transform="translate(78.710938 0)"/>
      <use xlink:href="#DejaVuSans-4c" transform="translate(148.193359 0)"/>
     </g>
    </g>
   </g>
  </g>
 </g>
 <defs>
  <clipPath id="p111c7c625d">
   <rect x="63.329438" y="7.2" width="516.276" height="181.2288"/>
  </clipPath>
 </defs>
</svg>
