<svg xmlns="http://www.w3.org/2000/svg" xmlns:xlink="http://www.w3.org/1999/xlink" xmlns:inkscape="http://www.inkscape.org/namespaces/inkscape" version="1.1" width="591.554" height="134.131" viewBox="-3 -3 597 140"><g id="deeditor_bgCarrier" stroke-width="0">
    <rect id="dee_c_e" x="-3" y="-3" width="597" height="140" rx="0" fill="#ffffff" strokewidth="0"/>
  </g>
<defs fill="#000000">
<path id="font_1_4" d="M.22799683 .2002716C.24499512 .19728089 .27198792 .19128418 .27799989 .19029236 .29100038 .18629456 .33599855 .1703186 .33599855 .12234497 .33599855 .09135437 .30799867 .010223389 .19198609 .010223389 .17098999 .010223389 .09599304 .01322937 .07598877 .068359378 .115997318 .06333923 .13598633 .09434509 .13598633 .11634827 .13598633 .13734436 .12199402 .14834595 .101989749 .14834595 .07998657 .14834595 .050994874 .13134766 .050994874 .08634949 .050994874 .027267456 .11099243-.009765625 .19099427-.009765625 .34298707-.009765625 .3880005 .10235596 .3880005 .15434265 .3880005 .16932678 .3880005 .19728089 .35598756 .22923279 .33099366 .25320436 .30699159 .25819398 .25299073 .2691803 .22599793 .275177 .18299866 .28416444 .18299866 .32913209 .18299866 .34913636 .20098877 .42140199 .29599 .42140199 .33799745 .42140199 .3789978 .4053192 .3889923 .36914063 .34498597 .36914063 .34298707 .33113099 .34298707 .33013917 .34298707 .3091278 .3619995 .3031311 .37098695 .3031311 .3849945 .3031311 .41299439 .3141327 .41299439 .35614015 .41299439 .3982849 .375 .44140626 .29699708 .44140626 .1659851 .44140626 .1309967 .33813478 .1309967 .2971344 .1309967 .22125244 .20498657 .20527649 .22799683 .2002716Z" fill="#000000"/>
<path id="font_2_2" d="M.31399537 .63708499C.31399537 .664032 .31199647 .66503909 .2849884 .66503909 .24398804 .6251831 .19099427 .6013489 .09599304 .6013489V.5683594C.12298584 .5683594 .1769867 .5683594 .23498535 .5953522V.08203125C.23498535 .04499817 .23199463 .032989503 .13699341 .032989503H.101989749V0C.14299011 .0029907227 .22898865 .0029907227 .27398683 .0029907227 .31900025 .0029907227 .4059906 .0029907227 .44699098 0V.032989503H.4119873C.31698609 .032989503 .31399537 .04499817 .31399537 .08203125V.63708499Z" fill="#000000"/>
<path id="font_2_3" d="M.28199769 .20405579C.2979889 .21907044 .33999635 .2520752 .35598756 .26608277 .41799928 .32312013 .47698976 .3781433 .47698976 .46917726 .47698976 .588089 .3769989 .66503909 .2519989 .66503909 .13198853 .66503909 .052993776 .57411196 .052993776 .48516847 .052993776 .4361725 .09199524 .4291687 .10598755 .4291687 .1269989 .4291687 .1579895 .4441681 .1579895 .48217774 .1579895 .5341797 .10798645 .5341797 .09599304 .5341797 .125 .6070709 .19198609 .6320343 .24099732 .6320343 .33399964 .6320343 .38198854 .55314639 .38198854 .46917726 .38198854 .36514283 .30899049 .28910829 .19099427 .16804505L.06498718 .037994386C.052993776 .026992798 .052993776 .024993897 .052993776 0H.44799806L.47698976 .17904663H.44599916C.44299317 .1590271 .43499757 .10900879 .4229889 .08999634 .4169922 .08198547 .34098817 .08198547 .32499696 .08198547H.14698792L.28199769 .20405579Z" fill="#000000"/>
<path id="font_2_4" d="M.25299073 .33370973C.33198548 .33370973 .38198854 .27557374 .38198854 .17037964 .38198854 .045440675 .31098939 .008514404 .2579956 .008514404 .20298767 .008514404 .12799073 .0284729 .09298706 .08137512 .1289978 .08137512 .1539917 .10437012 .1539917 .13737488 .1539917 .16937256 .1309967 .19238281 .09899902 .19238281 .07199097 .19238281 .04399109 .17536927 .04399109 .13537598 .04399109 .04045105 .1459961-.021484375 .2599945-.021484375 .3929901-.021484375 .48599244 .070388797 .48599244 .17037964 .48599244 .25352479 .41999818 .32969667 .31799317 .3517456 .39698792 .37982179 .45599366 .4479828 .45599366 .52804568 .45599366 .6080475 .3659973 .66503909 .2619934 .66503909 .15499878 .66503909 .07398987 .6070404 .07398987 .53105166 .07398987 .49404908 .09899902 .4780426 .125 .4780426 .1559906 .4780426 .17599488 .5000458 .17599488 .52905276 .17599488 .56604006 .14399719 .5800476 .12199402 .5810547 .1639862 .6360321 .24099732 .6390381 .25898744 .6390381 .2849884 .6390381 .36099244 .6310272 .36099244 .52804568 .36099244 .45799256 .33198548 .41589356 .31799317 .39985658 .28799439 .36878968 .2649994 .36679078 .20399475 .3627777 .18499756 .36177064 .1769867 .36076356 .1769867 .3477478 .1769867 .33370973 .18598938 .33370973 .20298767 .33370973H.25299073Z" fill="#000000"/>
<path id="font_2_5" d="M.3939972 .6468048C.3939972 .6667938 .3939972 .6748047 .37298585 .6748047 .3600006 .6748047 .35899354 .6737976 .34899903 .65979006L.02999878 .197052V.1640625H.31199647V.08100891C.31199647 .04399109 .30899049 .032989503 .23199463 .032989503H.20899964V0C.2939911 .0029907227 .29599 .0029907227 .35299684 .0029907227 .4099884 .0029907227 .4119873 .0029907227 .49699403 0V.032989503H.47399903C.39698792 .032989503 .3939972 .04399109 .3939972 .08100891V.1640625H.5V.197052H.3939972V.6468048M.31900025 .5658417V.197052H.06498718L.31900025 .5658417Z" fill="#000000"/>
<path id="font_2_6" d="M.13999939 .5618439C.15299988 .55784609 .19299317 .54785159 .23498535 .54785159 .3600006 .54785159 .43598939 .6358948 .43598939 .6510315 .43598939 .6620331 .42900086 .66503909 .42399598 .66503909 .42199708 .66503909 .41999818 .66503909 .41099549 .6600342 .37199403 .6450348 .32598878 .632843 .27198792 .632843 .21299744 .632843 .1639862 .6480255 .1329956 .6600342 .12298584 .66503909 .12098694 .66503909 .11999512 .66503909 .10699463 .66503909 .10699463 .6540375 .10699463 .6358948V.34292604C.10699463 .32492066 .10699463 .312912 .12298584 .312912 .1309967 .312912 .13398743 .3169098 .13899231 .32492066 .15098572 .33992005 .18899536 .39093019 .27398683 .39093019 .32998658 .39093019 .35699464 .34492494 .3659973 .32591249 .3829956 .28990174 .3849945 .24389649 .3849945 .20487976 .3849945 .1678772 .38398744 .11387634 .35598756 .069732669 .33699037 .039611818 .29699708 .008514404 .24398804 .008514404 .1789856 .008514404 .114990238 .0496521 .09199524 .11488342 .09498596 .11387634 .100997928 .11387634 .101989749 .11387634 .12998963 .11387634 .1519928 .13188172 .1519928 .16288758 .1519928 .19989014 .12298584 .21289063 .102996829 .21289063 .084991458 .21289063 .052993776 .20288086 .052993776 .15988159 .052993776 .069732669 .1309967-.021484375 .24598694-.021484375 .37098695-.021484375 .47698976 .07574463 .47698976 .19989014 .47698976 .31591798 .3929901 .4189453 .2749939 .4189453 .22499085 .4189453 .17799378 .40293885 .13999939 .368927V.5618439Z" fill="#000000"/>
<path id="font_2_7" d="M.13798523 .33073426C.13798523 .41377259 .14498902 .4868164 .18099976 .54782107 .21099854 .5978241 .2619934 .6390381 .32499696 .6390381 .34498597 .6390381 .3909912 .63601687 .4139862 .60084536 .36898805 .5988312 .36499024 .5648346 .36499024 .553833 .36499024 .5238342 .3880005 .50683596 .4119873 .50683596 .42999269 .50683596 .45899964 .51782229 .45899964 .5558319 .45899964 .615921 .4139862 .66503909 .32398988 .66503909 .18499756 .66503909 .04399109 .53282168 .04399109 .31672669 .04399109 .045532228 .16999817-.021484375 .2669983-.021484375 .31498719-.021484375 .36698915-.0084991459 .4119873 .03453064 .45199586 .07354736 .48599244 .11558533 .48599244 .20263672 .48599244 .33372499 .3869934 .42578126 .27598573 .42578126 .20399475 .42578126 .16099549 .37976075 .13798523 .33073426M.2669983 .008514404C.21398926 .008514404 .18099976 .045532228 .1659851 .07354736 .14299011 .11859131 .14099121 .18663025 .14099121 .22465515 .14099121 .32373048 .19499207 .3977661 .27198792 .3977661 .32199098 .3977661 .35198976 .37176515 .37098695 .33673097 .3919983 .29971314 .3919983 .25468446 .3919983 .2036438 .3919983 .15260315 .3919983 .10858154 .37199403 .07255554 .34599305 .026519776 .31098939 .008514404 .2669983 .008514404Z" fill="#000000"/>
<path id="font_3_1" d="M.32499696-.24298096C.32499696-.23999024 .32499696-.23799134 .30799867-.22097779 .20799256-.11997986 .1519928 .045013429 .1519928 .24900818 .1519928 .44299317 .19898987 .60998538 .31498719 .7279968 .32499696 .7369995 .32499696 .7389984 .32499696 .74198916 .32499696 .74798586 .31999208 .75 .31599427 .75 .30299378 .75 .22099304 .6779938 .17199707 .5799866 .12098694 .47898866 .09799194 .37199403 .09799194 .24900818 .09799194 .16000366 .11199951 .041015626 .1639862-.06599426 .22299195-.18598938 .30499269-.25097657 .31599427-.25097657 .31999208-.25097657 .32499696-.24897766 .32499696-.24298096Z" fill="#000000"/>
<path id="font_3_5" d="M.28799439 .64105227C.28799439 .664032 .28799439 .66503909 .2679901 .66503909 .24398804 .6380615 .19400025 .6012573 .09098816 .6012573V.5722656C.11399841 .5722656 .1639862 .5722656 .21899414 .59825137V.07701111C.21899414 .041000368 .21598816 .0289917 .12799073 .0289917H.09700012V0C.12399292 .0019989014 .22099304 .0019989014 .2539978 .0019989014 .2869873 .0019989014 .3829956 .0019989014 .4099884 0V.0289917H.3789978C.29100038 .0289917 .28799439 .041000368 .28799439 .07701111V.64105227Z" fill="#000000"/>
<path id="font_1_2" d="M.19499207-.0040130617C.19499207 .053985597 .17599488 .09700012 .1349945 .09700012 .102996829 .09700012 .08699036 .070999149 .08699036 .04899597 .08699036 .026992798 .101989749 0 .13598633 0 .14898682 0 .1599884 .0039978029 .16899109 .0129852299 .17098999 .01499939 .17199707 .01499939 .17298889 .01499939 .1749878 .01499939 .1749878 .0009918213 .1749878-.0040130617 .1749878-.037078859 .16899109-.10221863 .11099243-.1673584 .099990848-.17936707 .099990848-.18136597 .099990848-.18336487 .099990848-.18836975 .10499573-.19335938 .10998535-.19335938 .117996219-.19335938 .19499207-.119262699 .19499207-.0040130617Z" fill="#000000"/>
<path id="font_1_3" d="M.3889923 .40924073C.35798646 .4032135 .34199525 .3812256 .34199525 .3592224 .34199525 .33522035 .36099244 .32722474 .375 .32722474 .40299989 .32722474 .42599488 .35121156 .42599488 .3812256 .42599488 .41329957 .394989 .44140626 .34498597 .44140626 .30499269 .44140626 .25898744 .42340089 .21699524 .36221314 .20999146 .41532899 .16999817 .44140626 .12998963 .44140626 .09098816 .44140626 .070999149 .41127015 .05899048 .3892212 .041992189 .3532257 .026992798 .2932129 .026992798 .28822328 .026992798 .28422547 .0309906 .27922059 .037994386 .27922059 .04598999 .27922059 .04699707 .2802124 .052993776 .30322267 .067993167 .3632202 .08699036 .42140199 .1269989 .42140199 .15098572 .42140199 .1579895 .40422059 .1579895 .37521363 .1579895 .3532257 .147995 .31422425 .14099121 .28321839L.11299133 .17521668C.10899353 .15621948 .09799194 .11122131 .09298706 .0932312 .085998538 .067230228 .07499695 .020233155 .07499695 .0152282719 .07499695 .0012207031 .085998538-.009765625 .100997928-.009765625 .11199951-.009765625 .1309967-.0027770997 .13699341 .017227173 .13999939 .025222779 .1769867 .17622376 .18299866 .19921875 .18798828 .22122193 .19400025 .24221802 .19898987 .2642212 .20298767 .2782135 .20698548 .29421998 .20999146 .30722047 .21299744 .31622315 .23999024 .36521913 .2649994 .3872223 .2769928 .39822389 .30299378 .42140199 .34399415 .42140199 .3600006 .42140199 .37599183 .41836549 .3889923 .40924073Z" fill="#000000"/>
<path id="font_3_10" d="M.6749878 .32421876C.68899539 .32421876 .70700076 .32421876 .70700076 .34220887 .70700076 .36120606 .6899872 .36120606 .6749878 .36120606H.085998538C.07199097 .36120606 .053985597 .36120606 .053985597 .34321595 .053985597 .32421876 .070999149 .32421876 .085998538 .32421876H.6749878M.6749878 .13780213C.68899539 .13780213 .70700076 .13780213 .70700076 .15579224 .70700076 .17480469 .6899872 .17480469 .6749878 .17480469H.085998538C.07199097 .17480469 .053985597 .17480469 .053985597 .15679932 .053985597 .13780213 .070999149 .13780213 .085998538 .13780213H.6749878Z" fill="#000000"/>
<path id="font_2_1" d="M.4889984 .31877137C.4889984 .42585755 .47799684 .49090577 .44499208 .55496218 .40098573 .6430359 .31999208 .66503909 .2649994 .66503909 .13899231 .66503909 .09298706 .5709839 .07899475 .5429535 .042999269 .4698944 .040985109 .3708191 .040985109 .31877137 .040985109 .25271607 .04399109 .15162659 .09199524 .07156372 .13798523-.0024871827 .21199036-.021484375 .2649994-.021484375 .31298829-.021484375 .39898683-.0064849855 .44898988 .09257507 .48599244 .16464234 .4889984 .2537079 .4889984 .31877137M.2649994 .006515503C.23098755 .006515503 .1619873 .022521973 .14099121 .12760926 .12998963 .18466187 .12998963 .2787323 .12998963 .33078004 .12998963 .3998413 .12998963 .4698944 .14099121 .5249481 .1619873 .6270294 .23999024 .6370239 .2649994 .6370239 .29899598 .6370239 .36799623 .62002566 .3880005 .5289459 .3999939 .4738922 .3999939 .39883424 .3999939 .33078004 .3999939 .27172853 .3999939 .18165589 .3880005 .12561035 .36698915 .020523072 .2979889 .006515503 .2649994 .006515503Z" fill="#000000"/>
<path id="font_3_2" d="M.28199769 .24900818C.28199769 .32499696 .27198792 .44898988 .21598816 .5649872 .15699768 .68499758 .07499695 .75 .06399536 .75 .05999756 .75 .054992677 .74798586 .054992677 .74198916 .054992677 .7389984 .054992677 .7369995 .07199097 .71998599 .17199707 .61898806 .22799683 .45399476 .22799683 .25 .22799683 .056015016 .18099976-.11099243 .06498718-.22898865 .054992677-.23799134 .054992677-.23999024 .054992677-.24298096 .054992677-.24897766 .05999756-.25097657 .06399536-.25097657 .07699585-.25097657 .15899658-.1789856 .20799256-.08099365 .25898744 .021011353 .28199769 .12901306 .28199769 .24900818Z" fill="#000000"/>
<path id="font_3_4" d="M.44799806 .31976319C.44799806 .40283204 .44299317 .48390199 .40699769 .55996707 .3659973 .64302065 .2939911 .66503909 .24499512 .66503909 .18699646 .66503909 .115997318 .63601687 .07899475 .552948 .050994874 .48989869 .040985109 .42785646 .040985109 .31976319 .040985109 .22268677 .04798889 .14962769 .083999637 .078567508 .12298584 .0025177003 .19198609-.021484375 .24398804-.021484375 .33099366-.021484375 .3809967 .030532837 .4099884 .08857727 .44599916 .16363526 .44799806 .26171876 .44799806 .31976319M.24398804-.0014953613C.21199036-.0014953613 .14698792 .016525269 .12799073 .12561035 .116989139 .18565369 .116989139 .26171876 .116989139 .33177186 .116989139 .41384889 .116989139 .48789979 .1329956 .5469513 .1499939 .6139984 .20098877 .6450348 .24398804 .6450348 .28199769 .6450348 .33999635 .6220093 .35899354 .53593447 .37199403 .4788971 .37199403 .39982606 .37199403 .33177186 .37199403 .26472474 .37199403 .18865967 .36099244 .12760926 .34199525 .01751709 .2789917-.0014953613 .24398804-.0014953613Z" fill="#000000"/>
<path id="font_1_1" d="M.18399048 .04798889C.18399048 .07699585 .1599884 .09700012 .13598633 .09700012 .10699463 .09700012 .08699036 .07299805 .08699036 .04899597 .08699036 .019989014 .11099243 0 .1349945 0 .1639862 0 .18399048 .023986817 .18399048 .04798889Z" fill="#000000"/>
<path id="font_3_9" d="M.12298584 .34773255C.12298584 .60061648 .24598694 .641037 .2999878 .641037 .33599855 .641037 .37199403 .62991335 .3909912 .5996094 .3789978 .5996094 .34098817 .5996094 .34098817 .558609 .34098817 .53660586 .35598756 .51760867 .38198854 .51760867 .40699769 .51760867 .42399598 .53260806 .42399598 .56159976 .42399598 .6137543 .38598634 .66503909 .29899598 .66503909 .17298889 .66503909 .040985109 .53559878 .040985109 .31570436 .040985109 .040527345 .16099549-.021484375 .24598694-.021484375 .35499574-.021484375 .44799806 .07354736 .44799806 .2036438 .44799806 .33673097 .35499574 .42578126 .25498963 .42578126 .1659851 .42578126 .1329956 .34873963 .12298584 .32070924V.34773255M.24598694 .005508423C.18299866 .005508423 .15299988 .061538698 .14399719 .08256531 .1349945 .10858154 .125 .15760803 .125 .22766114 .125 .30670167 .16099549 .40577699 .25099183 .40577699 .30599977 .40577699 .33499146 .3687439 .34999085 .33473207 .3659973 .29769898 .3659973 .2476654 .3659973 .20463562 .3659973 .15361023 .3659973 .10858154 .34700013 .07055664 .32199098 .022521973 .28599549 .005508423 .24598694 .005508423Z" fill="#000000"/>
<path id="font_3_3" d="M.18399048 .04899597C.18399048 .07598877 .16099549 .09700012 .13598633 .09700012 .10699463 .09700012 .08699036 .07398987 .08699036 .04899597 .08699036 .018997193 .11199951 0 .1349945 0 .1619873 0 .18399048 .020996094 .18399048 .04899597Z" fill="#000000"/>
<path id="font_3_7" d="M.36099244 .6508026C.36099244 .6697998 .36099244 .6748047 .34700013 .6748047 .33898927 .6748047 .33599855 .6748047 .32798768 .662796L.026992798 .19598389V.16699219H.2899933V.07598877C.2899933 .038986207 .28799439 .0289917 .21499634 .0289917H.19499207V0C.21798706 .0019989014 .29699708 .0019989014 .32499696 .0019989014 .35299684 .0019989014 .43299867 .0019989014 .45599366 0V.0289917H.43598939C.3639984 .0289917 .36099244 .038986207 .36099244 .07598877V.16699219H.46199037V.19598389H.36099244V.6508026M.29499818 .5728302V.19598389H.051986696L.29499818 .5728302Z" fill="#000000"/>
<path id="font_3_6" d="M.18399048 .35888673C.16699219 .35787965 .16299439 .35688783 .16299439 .34788514 .16299439 .33789063 .16799927 .33789063 .18598938 .33789063H.23199463C.31698609 .33789063 .35499574 .267807 .35499574 .17172241 .35499574 .04058838 .2869873 .005508423 .23799134 .005508423 .18998719 .005508423 .10798645 .028564454 .07899475 .09472656 .11099243 .08970642 .13999939 .10771179 .13999939 .14372254 .13999939 .17271424 .11898804 .1927185 .09098816 .1927185 .066986087 .1927185 .040985109 .1787262 .040985109 .14071656 .040985109 .051620485 .12998963-.021484375 .24099732-.021484375 .3600006-.021484375 .44799806 .06965637 .44799806 .17071533 .44799806 .26280213 .37399293 .33488465 .27799989 .35188294 .36499024 .3769226 .42099 .45011903 .42099 .5282135 .42099 .6071167 .33898927 .66503909 .24198914 .66503909 .14199829 .66503909 .067993167 .604126 .067993167 .5312042 .067993167 .49121095 .09899902 .48321534 .11399841 .48321534 .1349945 .48321534 .15899658 .49821473 .15899658 .5282135 .15899658 .5602112 .1349945 .57421877 .11299133 .57421877 .10699463 .57421877 .10499573 .57421877 .101989749 .57321169 .13999939 .641037 .23399353 .641037 .23899842 .641037 .27198792 .641037 .33699037 .6260681 .33699037 .5282135 .33699037 .5092163 .33399964 .453125 .30499269 .41001893 .2749939 .3658905 .24099732 .36288453 .21398926 .36187745L.18399048 .35888673Z" fill="#000000"/>
<path id="font_3_8" d="M.12799073 .5727997C.17098999 .5588074 .20599365 .5578003 .21699524 .5578003 .32998658 .5578003 .4019928 .6409912 .4019928 .6550598 .4019928 .6590576 .3999939 .6640625 .3939972 .6640625 .3919983 .6640625 .3899994 .6640625 .3809967 .66004946 .32499696 .6358795 .2769928 .6328125 .25099183 .6328125 .18499756 .6328125 .13798523 .6530609 .11898804 .6610565 .11199951 .6640625 .10998535 .6640625 .10899353 .6640625 .100997928 .6640625 .100997928 .65805056 .100997928 .64201357V.34495545C.100997928 .32695008 .100997928 .32095338 .11299133 .32095338 .117996219 .32095338 .11898804 .32196046 .1289978 .33395387 .15699768 .37493897 .20399475 .39894105 .2539978 .39894105 .30699159 .39894105 .33299256 .34994508 .34098817 .33294679 .35798646 .29396058 .35899354 .2449646 .35899354 .20697022 .35899354 .16897583 .35899354 .11193848 .33099366 .0667572 .30899049 .03060913 .269989 .005508423 .22599793 .005508423 .1599884 .005508423 .09498596 .050689699 .07699585 .12397766 .08198547 .12197876 .08799744 .12097168 .09298706 .12097168 .10998535 .12097168 .13699341 .13098145 .13699341 .16497803 .13699341 .1929779 .117996219 .20898438 .09298706 .20898438 .07499695 .20898438 .04899597 .19998169 .04899597 .16098023 .04899597 .075790408 .116989139-.021484375 .22799683-.021484375 .34098817-.021484375 .43998719 .073791507 .43998719 .20097351 .43998719 .3199463 .3600006 .4189453 .25498963 .4189453 .19799805 .4189453 .1539917 .39393617 .12799073 .36595155V.5727997Z" fill="#000000"/>
</defs>
<path transform="matrix(1,0,0,-1,120.797,69.029)" stroke-width=".79701" stroke-linecap="butt" stroke-miterlimit="10" stroke-linejoin="miter" fill="none" stroke="#000000" d="M25.51212 0C25.51212 14.09013 14.09013 25.51212 0 25.51212-14.09013 25.51212-25.51212 14.09013-25.51212 0-25.51212-14.09013-14.09013-25.51212 0-25.51212 14.09013-25.51212 25.51212-14.09013 25.51212 0ZM0 0"/>
<use data-text="s" xlink:href="#font_1_4" transform="matrix(11.9552,0,0,-11.9552,115.673999,70.70599)" fill="#000000"/>
<use data-text="1" xlink:href="#font_2_2" transform="matrix(7.9701,0,0,-7.9701,121.187999,72.49899)" fill="#000000"/>
<path transform="matrix(1,0,0,-1,120.797,69.029)" stroke-width=".79701" stroke-linecap="butt" stroke-miterlimit="10" stroke-linejoin="miter" fill="none" stroke="#000000" d="M96.37914 0C96.37914 14.09013 84.95714 25.51212 70.867 25.51212 56.77687 25.51212 45.35489 14.09013 45.35489 0 45.35489-14.09013 56.77687-25.51212 70.867-25.51212 84.95714-25.51212 96.37914-14.09013 96.37914 0ZM70.867 0"/>
<use data-text="s" xlink:href="#font_1_4" transform="matrix(11.9552,0,0,-11.9552,186.54,70.70599)" fill="#000000"/>
<use data-text="2" xlink:href="#font_2_3" transform="matrix(7.9701,0,0,-7.9701,192.05399,72.49899)" fill="#000000"/>
<path transform="matrix(1,0,0,-1,120.797,69.029)" stroke-width=".79701" stroke-linecap="butt" stroke-miterlimit="10" stroke-linejoin="miter" fill="none" stroke="#000000" d="M167.24617 0C167.24617 14.09013 155.82418 25.51212 141.73404 25.51212 127.6439 25.51212 116.22191 14.09013 116.22191 0 116.22191-14.09013 127.6439-25.51212 141.73404-25.51212 155.82418-25.51212 167.24617-14.09013 167.24617 0ZM141.73404 0"/>
<use data-text="s" xlink:href="#font_1_4" transform="matrix(11.9552,0,0,-11.9552,257.406,70.70599)" fill="#000000"/>
<use data-text="3" xlink:href="#font_2_4" transform="matrix(7.9701,0,0,-7.9701,262.92,72.49899)" fill="#000000"/>
<path transform="matrix(1,0,0,-1,120.797,69.029)" stroke-width=".79701" stroke-linecap="butt" stroke-miterlimit="10" stroke-linejoin="miter" fill="none" stroke="#000000" d="M238.11319 0C238.11319 14.09013 226.6912 25.51212 212.60106 25.51212 198.51093 25.51212 187.08893 14.09013 187.08893 0 187.08893-14.09013 198.51093-25.51212 212.60106-25.51212 226.6912-25.51212 238.11319-14.09013 238.11319 0ZM212.60106 0"/>
<use data-text="s" xlink:href="#font_1_4" transform="matrix(11.9552,0,0,-11.9552,328.272,70.70599)" fill="#000000"/>
<use data-text="4" xlink:href="#font_2_5" transform="matrix(7.9701,0,0,-7.9701,333.786,72.49899)" fill="#000000"/>
<path transform="matrix(1,0,0,-1,120.797,69.029)" stroke-width=".79701" stroke-linecap="butt" stroke-miterlimit="10" stroke-linejoin="miter" fill="none" stroke="#000000" d="M308.98023 0C308.98023 14.09013 297.55824 25.51212 283.4681 25.51212 269.37797 25.51212 257.95597 14.09013 257.95597 0 257.95597-14.09013 269.37797-25.51212 283.4681-25.51212 297.55824-25.51212 308.98023-14.09013 308.98023 0ZM283.4681 0"/>
<use data-text="s" xlink:href="#font_1_4" transform="matrix(11.9552,0,0,-11.9552,399.138,70.70599)" fill="#000000"/>
<use data-text="5" xlink:href="#font_2_6" transform="matrix(7.9701,0,0,-7.9701,404.652,72.49899)" fill="#000000"/>
<path transform="matrix(1,0,0,-1,120.797,69.029)" stroke-width=".79701" stroke-linecap="butt" stroke-miterlimit="10" stroke-linejoin="miter" fill="none" stroke="#000000" d="M379.84724 0C379.84724 14.09013 368.42527 25.51212 354.3351 25.51212 340.24497 25.51212 328.82298 14.09013 328.82298 0 328.82298-14.09013 340.24497-25.51212 354.3351-25.51212 368.42527-25.51212 379.84724-14.09013 379.84724 0ZM354.3351 0"/>
<use data-text="s" xlink:href="#font_1_4" transform="matrix(11.9552,0,0,-11.9552,470.004,70.70599)" fill="#000000"/>
<use data-text="6" xlink:href="#font_2_7" transform="matrix(7.9701,0,0,-7.9701,475.518,72.49899)" fill="#000000"/>
<use data-text="(" xlink:href="#font_3_1" transform="matrix(11.9552,0,0,-11.9552,13.282997,71.88899)" fill="#000000"/>
<use data-text="1" xlink:href="#font_3_5" transform="matrix(11.9552,0,0,-11.9552,17.837929,71.88899)" fill="#000000"/>
<use data-text="," xlink:href="#font_1_2" transform="matrix(11.9552,0,0,-11.9552,23.687996,71.88899)" fill="#000000"/>
<use data-text="r" xlink:href="#font_1_3" transform="matrix(11.9552,0,0,-11.9552,28.936329,71.88899)" fill="#000000"/>
<use data-text="=" xlink:href="#font_3_10" transform="matrix(11.9552,0,0,-11.9552,37.853998,71.88899)" fill="#000000"/>
<use data-text="5" xlink:href="#font_2_6" transform="matrix(7.9701,0,0,-7.9701,57.825998,67.182)" fill="#000000"/>
<path transform="matrix(1,0,0,-1,51.474996,68.899997)" stroke-width=".398" stroke-linecap="butt" stroke-miterlimit="10" stroke-linejoin="miter" fill="none" stroke="#000000" d="M0 0H16.937"/>
<use data-text="1" xlink:href="#font_2_2" transform="matrix(7.9701,0,0,-7.9701,51.474996,76.01199)" fill="#000000"/>
<use data-text="0" xlink:href="#font_2_1" transform="matrix(7.9701,0,0,-7.9701,55.70712,76.01199)" fill="#000000"/>
<use data-text="0" xlink:href="#font_2_1" transform="matrix(7.9701,0,0,-7.9701,59.939245,76.01199)" fill="#000000"/>
<use data-text="0" xlink:href="#font_2_1" transform="matrix(7.9701,0,0,-7.9701,64.17137,76.01199)" fill="#000000"/>
<use data-text=")" xlink:href="#font_3_2" transform="matrix(11.9552,0,0,-11.9552,69.606998,71.88899)" fill="#000000"/>
<use data-text="(" xlink:href="#font_3_1" transform="matrix(11.9552,0,0,-11.9552,521.765,72.018)" fill="#000000"/>
<use data-text="0" xlink:href="#font_3_4" transform="matrix(11.9552,0,0,-11.9552,526.31997,72.018)" fill="#000000"/>
<use data-text="." xlink:href="#font_1_1" transform="matrix(11.9552,0,0,-11.9552,532.17007,72.018)" fill="#000000"/>
<use data-text="6" xlink:href="#font_3_9" transform="matrix(11.9552,0,0,-11.9552,535.42208,72.018)" fill="#000000"/>
<use data-text="," xlink:href="#font_1_2" transform="matrix(11.9552,0,0,-11.9552,541.2751,72.018)" fill="#000000"/>
<use data-text="r" xlink:href="#font_1_3" transform="matrix(11.9552,0,0,-11.9552,546.52346,72.018)" fill="#000000"/>
<use data-text="=" xlink:href="#font_3_10" transform="matrix(11.9552,0,0,-11.9552,555.44009,72.018)" fill="#000000"/>
<use data-text="1" xlink:href="#font_3_5" transform="matrix(11.9552,0,0,-11.9552,567.8735,72.018)" fill="#000000"/>
<use data-text=")" xlink:href="#font_3_2" transform="matrix(11.9552,0,0,-11.9552,573.7315,72.018)" fill="#000000"/>
<path transform="matrix(1,0,0,-1,120.797,69.029)" stroke-width=".79701" stroke-linecap="butt" stroke-miterlimit="10" stroke-linejoin="miter" fill="none" stroke="#000000" d="M0 25.91063C14.17339 50.45973-14.17339 50.45973-2.0551 29.47025"/>
<path transform="matrix(.49998,.86601,.86601,-.49998,117.5094,37.42397)" d="M5.44046 0 1.28699 1.5706 2.66432 0 1.28699-1.5706Z" fill="#000000"/>
<path transform="matrix(.49998,.86601,.86601,-.49998,117.5094,37.42397)" stroke-width=".79701" stroke-linecap="butt" stroke-miterlimit="10" stroke-linejoin="miter" fill="none" stroke="#000000" d="M5.44046 0 1.28699 1.5706 2.66432 0 1.28699-1.5706Z"/>
<use data-text="0" xlink:href="#font_3_4" transform="matrix(11.9552,0,0,-11.9552,113.31799,20.987999)" fill="#000000"/>
<use data-text="." xlink:href="#font_3_3" transform="matrix(11.9552,0,0,-11.9552,119.17604,20.987999)" fill="#000000"/>
<use data-text="4" xlink:href="#font_3_7" transform="matrix(11.9552,0,0,-11.9552,122.42786,20.987999)" fill="#000000"/>
<path transform="matrix(1,0,0,-1,120.797,69.029)" stroke-width=".79701" stroke-linecap="butt" stroke-miterlimit="10" stroke-linejoin="miter" fill="none" stroke="#000000" d="M70.867 25.91063C85.0404 50.45973 56.69362 50.45973 68.8119 29.47025"/>
<path transform="matrix(.49998,.86601,.86601,-.49998,188.3764,37.42397)" d="M5.44046 0 1.28699 1.5706 2.66432 0 1.28699-1.5706Z" fill="#000000"/>
<path transform="matrix(.49998,.86601,.86601,-.49998,188.3764,37.42397)" stroke-width=".79701" stroke-linecap="butt" stroke-miterlimit="10" stroke-linejoin="miter" fill="none" stroke="#000000" d="M5.44046 0 1.28699 1.5706 2.66432 0 1.28699-1.5706Z"/>
<use data-text="0" xlink:href="#font_3_4" transform="matrix(11.9552,0,0,-11.9552,184.18399,20.987999)" fill="#000000"/>
<use data-text="." xlink:href="#font_3_3" transform="matrix(11.9552,0,0,-11.9552,190.04204,20.987999)" fill="#000000"/>
<use data-text="6" xlink:href="#font_3_9" transform="matrix(11.9552,0,0,-11.9552,193.29386,20.987999)" fill="#000000"/>
<path transform="matrix(1,0,0,-1,120.797,69.029)" stroke-width=".79701" stroke-linecap="butt" stroke-miterlimit="10" stroke-linejoin="miter" fill="none" stroke="#000000" d="M141.73404 25.91063C155.90744 50.45973 127.56064 50.45973 139.67893 29.47025"/>
<path transform="matrix(.49998,.86601,.86601,-.49998,259.2434,37.42397)" d="M5.44046 0 1.28699 1.5706 2.66432 0 1.28699-1.5706Z" fill="#000000"/>
<path transform="matrix(.49998,.86601,.86601,-.49998,259.2434,37.42397)" stroke-width=".79701" stroke-linecap="butt" stroke-miterlimit="10" stroke-linejoin="miter" fill="none" stroke="#000000" d="M5.44046 0 1.28699 1.5706 2.66432 0 1.28699-1.5706Z"/>
<use data-text="0" xlink:href="#font_3_4" transform="matrix(11.9552,0,0,-11.9552,255.05,20.987999)" fill="#000000"/>
<use data-text="." xlink:href="#font_3_3" transform="matrix(11.9552,0,0,-11.9552,260.90806,20.987999)" fill="#000000"/>
<use data-text="6" xlink:href="#font_3_9" transform="matrix(11.9552,0,0,-11.9552,264.15986,20.987999)" fill="#000000"/>
<path transform="matrix(1,0,0,-1,120.797,69.029)" stroke-width=".79701" stroke-linecap="butt" stroke-miterlimit="10" stroke-linejoin="miter" fill="none" stroke="#000000" d="M212.60106 25.91063C226.77446 50.45973 198.42766 50.45973 210.54595 29.47025"/>
<path transform="matrix(.49998,.86601,.86601,-.49998,330.11045,37.42397)" d="M5.44046 0 1.28699 1.5706 2.66432 0 1.28699-1.5706Z" fill="#000000"/>
<path transform="matrix(.49998,.86601,.86601,-.49998,330.11045,37.42397)" stroke-width=".79701" stroke-linecap="butt" stroke-miterlimit="10" stroke-linejoin="miter" fill="none" stroke="#000000" d="M5.44046 0 1.28699 1.5706 2.66432 0 1.28699-1.5706Z"/>
<use data-text="0" xlink:href="#font_3_4" transform="matrix(11.9552,0,0,-11.9552,325.91603,20.987999)" fill="#000000"/>
<use data-text="." xlink:href="#font_3_3" transform="matrix(11.9552,0,0,-11.9552,331.77409,20.987999)" fill="#000000"/>
<use data-text="6" xlink:href="#font_3_9" transform="matrix(11.9552,0,0,-11.9552,335.02589,20.987999)" fill="#000000"/>
<path transform="matrix(1,0,0,-1,120.797,69.029)" stroke-width=".79701" stroke-linecap="butt" stroke-miterlimit="10" stroke-linejoin="miter" fill="none" stroke="#000000" d="M283.4681 25.91063C297.6415 50.45973 269.2947 50.45973 281.413 29.47025"/>
<path transform="matrix(.49998,.86601,.86601,-.49998,400.97749,37.42397)" d="M5.44046 0 1.28699 1.5706 2.66432 0 1.28699-1.5706Z" fill="#000000"/>
<path transform="matrix(.49998,.86601,.86601,-.49998,400.97749,37.42397)" stroke-width=".79701" stroke-linecap="butt" stroke-miterlimit="10" stroke-linejoin="miter" fill="none" stroke="#000000" d="M5.44046 0 1.28699 1.5706 2.66432 0 1.28699-1.5706Z"/>
<use data-text="0" xlink:href="#font_3_4" transform="matrix(11.9552,0,0,-11.9552,396.78199,20.987999)" fill="#000000"/>
<use data-text="." xlink:href="#font_3_3" transform="matrix(11.9552,0,0,-11.9552,402.64006,20.987999)" fill="#000000"/>
<use data-text="6" xlink:href="#font_3_9" transform="matrix(11.9552,0,0,-11.9552,405.89186,20.987999)" fill="#000000"/>
<path transform="matrix(1,0,0,-1,120.797,69.029)" stroke-width=".79701" stroke-linecap="butt" stroke-dasharray="2.98883,2.98883" stroke-miterlimit="10" stroke-linejoin="miter" fill="none" stroke="#000000" d="M-25.91063 0C-50.45973-14.17339-50.45973 14.17339-29.47025 2.0551"/>
<path transform="matrix(.86601,.49998,.49998,-.86601,89.19197,65.7414)" d="M5.44046 0 1.28699 1.5706 2.66432 0 1.28699-1.5706Z" fill="#000000"/>
<path transform="matrix(.86601,.49998,.49998,-.86601,89.19197,65.7414)" stroke-width=".79701" stroke-linecap="butt" stroke-miterlimit="10" stroke-linejoin="miter" fill="none" stroke="#000000" d="M5.44046 0 1.28699 1.5706 2.66432 0 1.28699-1.5706Z"/>
<path transform="matrix(1,0,0,-1,120.797,69.029)" stroke-width=".79701" stroke-linecap="butt" stroke-miterlimit="10" stroke-linejoin="miter" fill="none" stroke="#000000" d="M380.24574 0C404.79487 14.17339 404.79487-14.17339 383.80537-2.0551"/>
<path transform="matrix(-.86601,-.49998,-.49998,.86601,506.73716,72.3166)" d="M5.44046 0 1.28699 1.5706 2.66432 0 1.28699-1.5706Z" fill="#000000"/>
<path transform="matrix(-.86601,-.49998,-.49998,.86601,506.73716,72.3166)" stroke-width=".79701" stroke-linecap="butt" stroke-miterlimit="10" stroke-linejoin="miter" fill="none" stroke="#000000" d="M5.44046 0 1.28699 1.5706 2.66432 0 1.28699-1.5706Z"/>
<path transform="matrix(1,0,0,-1,120.797,69.029)" stroke-width=".79701" stroke-linecap="butt" stroke-miterlimit="10" stroke-linejoin="miter" fill="none" stroke="#000000" d="M24.34773 8.8617C32.47258 11.81892 38.39442 11.81892 42.65683 10.26747"/>
<path transform="matrix(.93968,.34201,.34201,-.93968,161.13745,57.91845)" d="M5.44046 0 1.28699 1.5706 2.66432 0 1.28699-1.5706Z" fill="#000000"/>
<path transform="matrix(.93968,.34201,.34201,-.93968,161.13745,57.91845)" stroke-width=".79701" stroke-linecap="butt" stroke-miterlimit="10" stroke-linejoin="miter" fill="none" stroke="#000000" d="M5.44046 0 1.28699 1.5706 2.66432 0 1.28699-1.5706Z"/>
<use data-text="0" xlink:href="#font_3_4" transform="matrix(11.9552,0,0,-11.9552,148.75099,54.229997)" fill="#000000"/>
<use data-text="." xlink:href="#font_3_3" transform="matrix(11.9552,0,0,-11.9552,154.60904,54.229997)" fill="#000000"/>
<use data-text="6" xlink:href="#font_3_9" transform="matrix(11.9552,0,0,-11.9552,157.86086,54.229997)" fill="#000000"/>
<path transform="matrix(1,0,0,-1,120.797,69.029)" stroke-width=".79701" stroke-linecap="butt" stroke-miterlimit="10" stroke-linejoin="miter" fill="none" stroke="#000000" d="M95.21475 8.8617C103.33958 11.81892 109.26146 11.81892 113.52386 10.26747"/>
<path transform="matrix(.93968,.34201,.34201,-.93968,232.00447,57.91845)" d="M5.44046 0 1.28699 1.5706 2.66432 0 1.28699-1.5706Z" fill="#000000"/>
<path transform="matrix(.93968,.34201,.34201,-.93968,232.00447,57.91845)" stroke-width=".79701" stroke-linecap="butt" stroke-miterlimit="10" stroke-linejoin="miter" fill="none" stroke="#000000" d="M5.44046 0 1.28699 1.5706 2.66432 0 1.28699-1.5706Z"/>
<use data-text="0" xlink:href="#font_3_4" transform="matrix(11.9552,0,0,-11.9552,216.691,54.229997)" fill="#000000"/>
<use data-text="." xlink:href="#font_3_3" transform="matrix(11.9552,0,0,-11.9552,222.54904,54.229997)" fill="#000000"/>
<use data-text="3" xlink:href="#font_3_6" transform="matrix(11.9552,0,0,-11.9552,225.80086,54.229997)" fill="#000000"/>
<use data-text="5" xlink:href="#font_3_8" transform="matrix(11.9552,0,0,-11.9552,231.6589,54.229997)" fill="#000000"/>
<path transform="matrix(1,0,0,-1,120.797,69.029)" stroke-width=".79701" stroke-linecap="butt" stroke-miterlimit="10" stroke-linejoin="miter" fill="none" stroke="#000000" d="M166.08179 8.8617C174.20662 11.81892 180.12848 11.81892 184.39089 10.26747"/>
<path transform="matrix(.93968,.34201,.34201,-.93968,302.8715,57.91845)" d="M5.44046 0 1.28699 1.5706 2.66432 0 1.28699-1.5706Z" fill="#000000"/>
<path transform="matrix(.93968,.34201,.34201,-.93968,302.8715,57.91845)" stroke-width=".79701" stroke-linecap="butt" stroke-miterlimit="10" stroke-linejoin="miter" fill="none" stroke="#000000" d="M5.44046 0 1.28699 1.5706 2.66432 0 1.28699-1.5706Z"/>
<use data-text="0" xlink:href="#font_3_4" transform="matrix(11.9552,0,0,-11.9552,287.557,54.229997)" fill="#000000"/>
<use data-text="." xlink:href="#font_3_3" transform="matrix(11.9552,0,0,-11.9552,293.41508,54.229997)" fill="#000000"/>
<use data-text="3" xlink:href="#font_3_6" transform="matrix(11.9552,0,0,-11.9552,296.66688,54.229997)" fill="#000000"/>
<use data-text="5" xlink:href="#font_3_8" transform="matrix(11.9552,0,0,-11.9552,302.52494,54.229997)" fill="#000000"/>
<path transform="matrix(1,0,0,-1,120.797,69.029)" stroke-width=".79701" stroke-linecap="butt" stroke-miterlimit="10" stroke-linejoin="miter" fill="none" stroke="#000000" d="M236.9488 8.8617C245.07364 11.81892 250.99552 11.81892 255.25792 10.26747"/>
<path transform="matrix(.93968,.34201,.34201,-.93968,373.73854,57.91845)" d="M5.44046 0 1.28699 1.5706 2.66432 0 1.28699-1.5706Z" fill="#000000"/>
<path transform="matrix(.93968,.34201,.34201,-.93968,373.73854,57.91845)" stroke-width=".79701" stroke-linecap="butt" stroke-miterlimit="10" stroke-linejoin="miter" fill="none" stroke="#000000" d="M5.44046 0 1.28699 1.5706 2.66432 0 1.28699-1.5706Z"/>
<use data-text="0" xlink:href="#font_3_4" transform="matrix(11.9552,0,0,-11.9552,358.423,54.229997)" fill="#000000"/>
<use data-text="." xlink:href="#font_3_3" transform="matrix(11.9552,0,0,-11.9552,364.28108,54.229997)" fill="#000000"/>
<use data-text="3" xlink:href="#font_3_6" transform="matrix(11.9552,0,0,-11.9552,367.53288,54.229997)" fill="#000000"/>
<use data-text="5" xlink:href="#font_3_8" transform="matrix(11.9552,0,0,-11.9552,373.39094,54.229997)" fill="#000000"/>
<path transform="matrix(1,0,0,-1,120.797,69.029)" stroke-width=".79701" stroke-linecap="butt" stroke-miterlimit="10" stroke-linejoin="miter" fill="none" stroke="#000000" d="M307.81584 8.8617C315.94068 11.81892 321.86253 11.81892 326.12495 10.26747"/>
<path transform="matrix(.93968,.34201,.34201,-.93968,444.60557,57.91845)" d="M5.44046 0 1.28699 1.5706 2.66432 0 1.28699-1.5706Z" fill="#000000"/>
<path transform="matrix(.93968,.34201,.34201,-.93968,444.60557,57.91845)" stroke-width=".79701" stroke-linecap="butt" stroke-miterlimit="10" stroke-linejoin="miter" fill="none" stroke="#000000" d="M5.44046 0 1.28699 1.5706 2.66432 0 1.28699-1.5706Z"/>
<use data-text="0" xlink:href="#font_3_4" transform="matrix(11.9552,0,0,-11.9552,429.289,54.229997)" fill="#000000"/>
<use data-text="." xlink:href="#font_3_3" transform="matrix(11.9552,0,0,-11.9552,435.14707,54.229997)" fill="#000000"/>
<use data-text="3" xlink:href="#font_3_6" transform="matrix(11.9552,0,0,-11.9552,438.39888,54.229997)" fill="#000000"/>
<use data-text="5" xlink:href="#font_3_8" transform="matrix(11.9552,0,0,-11.9552,444.25694,54.229997)" fill="#000000"/>
<path transform="matrix(1,0,0,-1,120.797,69.029)" stroke-width=".79701" stroke-linecap="butt" stroke-miterlimit="10" stroke-linejoin="miter" fill="none" stroke="#000000" d="M46.51926-8.8617C38.39442-11.81892 32.47258-11.81892 28.21016-10.26747"/>
<path transform="matrix(-.93968,-.34201,-.34201,.93968,151.32355,80.13955)" d="M5.44046 0 1.28699 1.5706 2.66432 0 1.28699-1.5706Z" fill="#000000"/>
<path transform="matrix(-.93968,-.34201,-.34201,.93968,151.32355,80.13955)" stroke-width=".79701" stroke-linecap="butt" stroke-miterlimit="10" stroke-linejoin="miter" fill="none" stroke="#000000" d="M5.44046 0 1.28699 1.5706 2.66432 0 1.28699-1.5706Z"/>
<use data-text="0" xlink:href="#font_3_4" transform="matrix(11.9552,0,0,-11.9552,145.825,91.532)" fill="#000000"/>
<use data-text="." xlink:href="#font_3_3" transform="matrix(11.9552,0,0,-11.9552,151.68305,91.532)" fill="#000000"/>
<use data-text="0" xlink:href="#font_3_4" transform="matrix(11.9552,0,0,-11.9552,154.93486,91.532)" fill="#000000"/>
<use data-text="5" xlink:href="#font_3_8" transform="matrix(11.9552,0,0,-11.9552,160.79291,91.532)" fill="#000000"/>
<path transform="matrix(1,0,0,-1,120.797,69.029)" stroke-width=".79701" stroke-linecap="butt" stroke-miterlimit="10" stroke-linejoin="miter" fill="none" stroke="#000000" d="M117.38629-8.8617C109.26146-11.81892 103.33958-11.81892 99.07718-10.26747"/>
<path transform="matrix(-.93968,-.34201,-.34201,.93968,222.19057,80.13955)" d="M5.44046 0 1.28699 1.5706 2.66432 0 1.28699-1.5706Z" fill="#000000"/>
<path transform="matrix(-.93968,-.34201,-.34201,.93968,222.19057,80.13955)" stroke-width=".79701" stroke-linecap="butt" stroke-miterlimit="10" stroke-linejoin="miter" fill="none" stroke="#000000" d="M5.44046 0 1.28699 1.5706 2.66432 0 1.28699-1.5706Z"/>
<use data-text="0" xlink:href="#font_3_4" transform="matrix(11.9552,0,0,-11.9552,216.691,91.532)" fill="#000000"/>
<use data-text="." xlink:href="#font_3_3" transform="matrix(11.9552,0,0,-11.9552,222.54904,91.532)" fill="#000000"/>
<use data-text="0" xlink:href="#font_3_4" transform="matrix(11.9552,0,0,-11.9552,225.80086,91.532)" fill="#000000"/>
<use data-text="5" xlink:href="#font_3_8" transform="matrix(11.9552,0,0,-11.9552,231.6589,91.532)" fill="#000000"/>
<path transform="matrix(1,0,0,-1,120.797,69.029)" stroke-width=".79701" stroke-linecap="butt" stroke-miterlimit="10" stroke-linejoin="miter" fill="none" stroke="#000000" d="M188.25331-8.8617C180.12848-11.81892 174.20662-11.81892 169.94422-10.26747"/>
<path transform="matrix(-.93968,-.34201,-.34201,.93968,293.05763,80.13955)" d="M5.44046 0 1.28699 1.5706 2.66432 0 1.28699-1.5706Z" fill="#000000"/>
<path transform="matrix(-.93968,-.34201,-.34201,.93968,293.05763,80.13955)" stroke-width=".79701" stroke-linecap="butt" stroke-miterlimit="10" stroke-linejoin="miter" fill="none" stroke="#000000" d="M5.44046 0 1.28699 1.5706 2.66432 0 1.28699-1.5706Z"/>
<use data-text="0" xlink:href="#font_3_4" transform="matrix(11.9552,0,0,-11.9552,287.557,91.532)" fill="#000000"/>
<use data-text="." xlink:href="#font_3_3" transform="matrix(11.9552,0,0,-11.9552,293.41508,91.532)" fill="#000000"/>
<use data-text="0" xlink:href="#font_3_4" transform="matrix(11.9552,0,0,-11.9552,296.66688,91.532)" fill="#000000"/>
<use data-text="5" xlink:href="#font_3_8" transform="matrix(11.9552,0,0,-11.9552,302.52494,91.532)" fill="#000000"/>
<path transform="matrix(1,0,0,-1,120.797,69.029)" stroke-width=".79701" stroke-linecap="butt" stroke-miterlimit="10" stroke-linejoin="miter" fill="none" stroke="#000000" d="M259.12037-8.8617C250.99552-11.81892 245.07364-11.81892 240.81124-10.26747"/>
<path transform="matrix(-.93968,-.34201,-.34201,.93968,363.92463,80.13955)" d="M5.44046 0 1.28699 1.5706 2.66432 0 1.28699-1.5706Z" fill="#000000"/>
<path transform="matrix(-.93968,-.34201,-.34201,.93968,363.92463,80.13955)" stroke-width=".79701" stroke-linecap="butt" stroke-miterlimit="10" stroke-linejoin="miter" fill="none" stroke="#000000" d="M5.44046 0 1.28699 1.5706 2.66432 0 1.28699-1.5706Z"/>
<use data-text="0" xlink:href="#font_3_4" transform="matrix(11.9552,0,0,-11.9552,358.423,91.532)" fill="#000000"/>
<use data-text="." xlink:href="#font_3_3" transform="matrix(11.9552,0,0,-11.9552,364.28108,91.532)" fill="#000000"/>
<use data-text="0" xlink:href="#font_3_4" transform="matrix(11.9552,0,0,-11.9552,367.53288,91.532)" fill="#000000"/>
<use data-text="5" xlink:href="#font_3_8" transform="matrix(11.9552,0,0,-11.9552,373.39094,91.532)" fill="#000000"/>
<path transform="matrix(1,0,0,-1,120.797,69.029)" stroke-width=".79701" stroke-linecap="butt" stroke-miterlimit="10" stroke-linejoin="miter" fill="none" stroke="#000000" d="M329.98738-8.8617C321.86253-11.81892 315.94068-11.81892 311.67829-10.26747"/>
<path transform="matrix(-.93968,-.34201,-.34201,.93968,434.79164,80.13955)" d="M5.44046 0 1.28699 1.5706 2.66432 0 1.28699-1.5706Z" fill="#000000"/>
<path transform="matrix(-.93968,-.34201,-.34201,.93968,434.79164,80.13955)" stroke-width=".79701" stroke-linecap="butt" stroke-miterlimit="10" stroke-linejoin="miter" fill="none" stroke="#000000" d="M5.44046 0 1.28699 1.5706 2.66432 0 1.28699-1.5706Z"/>
<use data-text="0" xlink:href="#font_3_4" transform="matrix(11.9552,0,0,-11.9552,432.216,91.532)" fill="#000000"/>
<use data-text="." xlink:href="#font_3_3" transform="matrix(11.9552,0,0,-11.9552,438.07408,91.532)" fill="#000000"/>
<use data-text="4" xlink:href="#font_3_7" transform="matrix(11.9552,0,0,-11.9552,441.32588,91.532)" fill="#000000"/>
<path transform="matrix(1,0,0,-1,120.797,69.029)" stroke-width=".79701" stroke-linecap="butt" stroke-dasharray="2.98883,2.98883" stroke-miterlimit="10" stroke-linejoin="miter" fill="none" stroke="#000000" d="M70.867-25.91063C70.867-51.42274 0-51.42274 0-30.02098"/>
<path transform="matrix(0,-1,-1,-0,120.797,101.515048)" d="M5.44046 0 1.28699 1.5706 2.66432 0 1.28699-1.5706Z" fill="#000000"/>
<path transform="matrix(0,-1,-1,-0,120.797,101.515048)" stroke-width=".79701" stroke-linecap="butt" stroke-miterlimit="10" stroke-linejoin="miter" fill="none" stroke="#000000" d="M5.44046 0 1.28699 1.5706 2.66432 0 1.28699-1.5706Z"/>
<path transform="matrix(1,0,0,-1,120.797,69.029)" d="M31.51068-55.14027H39.35629V-45.4432H31.51068Z" fill="#ffffff"/>
<use data-text="1" xlink:href="#font_3_5" transform="matrix(11.9552,0,0,-11.9552,153.303,123.172)" fill="#000000"/>
<path transform="matrix(1,0,0,-1,120.797,69.029)" stroke-width=".79701" stroke-linecap="butt" stroke-dasharray="2.98883,2.98883" stroke-miterlimit="10" stroke-linejoin="miter" fill="none" stroke="#000000" d="M141.73404-25.91063C141.73404-51.42274 70.867-51.42274 70.867-30.02098"/>
<path transform="matrix(0,-1,-1,-0,191.664,101.515048)" d="M5.44046 0 1.28699 1.5706 2.66432 0 1.28699-1.5706Z" fill="#000000"/>
<path transform="matrix(0,-1,-1,-0,191.664,101.515048)" stroke-width=".79701" stroke-linecap="butt" stroke-miterlimit="10" stroke-linejoin="miter" fill="none" stroke="#000000" d="M5.44046 0 1.28699 1.5706 2.66432 0 1.28699-1.5706Z"/>
<path transform="matrix(1,0,0,-1,120.797,69.029)" d="M102.37769-55.14027H110.223308V-45.4432H102.37769Z" fill="#ffffff"/>
<use data-text="1" xlink:href="#font_3_5" transform="matrix(11.9552,0,0,-11.9552,224.17,123.172)" fill="#000000"/>
<path transform="matrix(1,0,0,-1,120.797,69.029)" stroke-width=".79701" stroke-linecap="butt" stroke-dasharray="2.98883,2.98883" stroke-miterlimit="10" stroke-linejoin="miter" fill="none" stroke="#000000" d="M212.60106-25.91063C212.60106-51.42274 141.73404-51.42274 141.73404-30.02098"/>
<path transform="matrix(0,-1,-1,-0,262.53105,101.515048)" d="M5.44046 0 1.28699 1.5706 2.66432 0 1.28699-1.5706Z" fill="#000000"/>
<path transform="matrix(0,-1,-1,-0,262.53105,101.515048)" stroke-width=".79701" stroke-linecap="butt" stroke-miterlimit="10" stroke-linejoin="miter" fill="none" stroke="#000000" d="M5.44046 0 1.28699 1.5706 2.66432 0 1.28699-1.5706Z"/>
<path transform="matrix(1,0,0,-1,120.797,69.029)" d="M173.24472-55.14027H181.09033V-45.4432H173.24472Z" fill="#ffffff"/>
<use data-text="1" xlink:href="#font_3_5" transform="matrix(11.9552,0,0,-11.9552,295.036,123.172)" fill="#000000"/>
<path transform="matrix(1,0,0,-1,120.797,69.029)" stroke-width=".79701" stroke-linecap="butt" stroke-dasharray="2.98883,2.98883" stroke-miterlimit="10" stroke-linejoin="miter" fill="none" stroke="#000000" d="M283.4681-25.91063C283.4681-51.42274 212.60106-51.42274 212.60106-30.02098"/>
<path transform="matrix(0,-1,-1,-0,333.39808,101.515048)" d="M5.44046 0 1.28699 1.5706 2.66432 0 1.28699-1.5706Z" fill="#000000"/>
<path transform="matrix(0,-1,-1,-0,333.39808,101.515048)" stroke-width=".79701" stroke-linecap="butt" stroke-miterlimit="10" stroke-linejoin="miter" fill="none" stroke="#000000" d="M5.44046 0 1.28699 1.5706 2.66432 0 1.28699-1.5706Z"/>
<path transform="matrix(1,0,0,-1,120.797,69.029)" d="M244.11176-55.14027H251.95737V-45.4432H244.11176Z" fill="#ffffff"/>
<use data-text="1" xlink:href="#font_3_5" transform="matrix(11.9552,0,0,-11.9552,365.90199,123.172)" fill="#000000"/>
<path transform="matrix(1,0,0,-1,120.797,69.029)" stroke-width=".79701" stroke-linecap="butt" stroke-dasharray="2.98883,2.98883" stroke-miterlimit="10" stroke-linejoin="miter" fill="none" stroke="#000000" d="M354.3351-25.91063C354.3351-51.42274 283.4681-51.42274 283.4681-30.02098"/>
<path transform="matrix(0,-1,-1,-0,404.2651,101.515048)" d="M5.44046 0 1.28699 1.5706 2.66432 0 1.28699-1.5706Z" fill="#000000"/>
<path transform="matrix(0,-1,-1,-0,404.2651,101.515048)" stroke-width=".79701" stroke-linecap="butt" stroke-miterlimit="10" stroke-linejoin="miter" fill="none" stroke="#000000" d="M5.44046 0 1.28699 1.5706 2.66432 0 1.28699-1.5706Z"/>
<path transform="matrix(1,0,0,-1,120.797,69.029)" d="M314.9788-55.14027H322.8244V-45.4432H314.9788Z" fill="#ffffff"/>
<use data-text="1" xlink:href="#font_3_5" transform="matrix(11.9552,0,0,-11.9552,436.768,123.172)" fill="#000000"/>
</svg>